<svg width="512" height="512" version="1.1" xmlns="http://www.w3.org/2000/svg" desc="Created with imagetracer.js version 1.2.6" ><path fill="rgb(34,13,21)" stroke="rgb(34,13,21)" stroke-width="1" opacity="0.9215686274509803" d="M 76.5 0 L 85 0.5 L 76.5 1 L 76.5 0 Z " /><path fill="rgb(34,13,21)" stroke="rgb(34,13,21)" stroke-width="1" opacity="0.9215686274509803" d="M 86.5 0 L 427 0.5 L 86.5 1 L 86.5 0 Z " /><path fill="rgb(34,13,21)" stroke="rgb(34,13,21)" stroke-width="1" opacity="0.9215686274509803" d="M 428.5 0 L 437 0.5 L 428.5 1 L 428.5 0 Z " /><path fill="rgb(34,13,21)" stroke="rgb(34,13,21)" stroke-width="1" opacity="0.9215686274509803" d="M 70.5 1 L 74 1.5 L 70.5 2 L 70.5 1 Z " /><path fill="rgb(34,13,21)" stroke="rgb(34,13,21)" stroke-width="1" opacity="0.9215686274509803" d="M 439.5 1 L 443 1.5 L 439.5 2 L 439.5 1 Z " /><path fill="rgb(34,13,21)" stroke="rgb(34,13,21)" stroke-width="1" opacity="0.9215686274509803" d="M 65.5 2 L 69 2.5 L 65.5 3 L 65.5 2 Z " /><path fill="rgb(34,13,21)" stroke="rgb(34,13,21)" stroke-width="1" opacity="0.9215686274509803" d="M 445.5 2 L 448 2.5 L 445.5 3 L 445.5 2 Z " /><path fill="rgb(34,13,21)" stroke="rgb(34,13,21)" stroke-width="1" opacity="0.9215686274509803" d="M 61.5 3 L 64 3.5 L 51.5 8 L 51.5 7 L 61.5 3 Z " /><path fill="rgb(34,13,21)" stroke="rgb(34,13,21)" stroke-width="1" opacity="0.9215686274509803" d="M 449.5 3 L 462 7.5 L 460.5 8 L 449.5 4 L 449.5 3 Z " /><path fill="rgb(34,13,21)" stroke="rgb(34,13,21)" stroke-width="1" opacity="0.9215686274509803" d="M 45.5 10 L 44.5 12 L 36.5 17 L 38.5 14 L 45.5 10 Z " /><path fill="rgb(34,13,21)" stroke="rgb(34,13,21)" stroke-width="1" opacity="0.9215686274509803" d="M 467.5 10 L 477 16.5 L 474.5 15 L 468.5 12 L 467.5 10 Z " /><path fill="rgb(34,13,21)" stroke="rgb(34,13,21)" stroke-width="1" opacity="0.9215686274509803" d="M 34.5 17 L 31.5 21 L 34.5 17 Z " /><path fill="rgb(34,13,21)" stroke="rgb(34,13,21)" stroke-width="1" opacity="0.9215686274509803" d="M 478.5 17 L 480.5 20 L 478.5 17 Z " /><path fill="rgb(34,13,21)" stroke="rgb(34,13,21)" stroke-width="1" opacity="0.9215686274509803" d="M 483.5 21 L 489.5 28 L 483.5 21 Z " /><path fill="rgb(34,13,21)" stroke="rgb(34,13,21)" stroke-width="1" opacity="0.9215686274509803" d="M 28.5 22 L 24.5 27 L 28.5 22 Z " /><path fill="rgb(34,13,21)" stroke="rgb(34,13,21)" stroke-width="1" opacity="0.9215686274509803" d="M 22.5 29 L 19.5 33 L 22.5 29 Z " /><path fill="rgb(34,13,21)" stroke="rgb(34,13,21)" stroke-width="1" opacity="0.9215686274509803" d="M 491.5 30 L 493.5 33 L 491.5 30 Z " /><path fill="rgb(34,13,21)" stroke="rgb(34,13,21)" stroke-width="1" opacity="0.9215686274509803" d="M 18.5 34 L 16.5 37 L 18.5 34 Z " /><path fill="rgb(34,13,21)" stroke="rgb(34,13,21)" stroke-width="1" opacity="0.9215686274509803" d="M 494.5 34 L 496.5 37 L 494.5 34 Z " /><path fill="rgb(34,13,21)" stroke="rgb(34,13,21)" stroke-width="1" opacity="0.9215686274509803" d="M 497.5 38 L 500 41.5 L 498 40.5 L 497.5 38 Z " /><path fill="rgb(34,13,21)" stroke="rgb(34,13,21)" stroke-width="1" opacity="0.9215686274509803" d="M 14.5 40 L 13.5 42 L 14.5 40 Z " /><path fill="rgb(34,13,21)" stroke="rgb(34,13,21)" stroke-width="1" opacity="0.9215686274509803" d="M 9.5 49 L 10 50.5 L 8.5 53 L 8 51.5 L 9.5 49 Z " /><path fill="rgb(34,13,21)" stroke="rgb(34,13,21)" stroke-width="1" opacity="0.9215686274509803" d="M 503.5 49 L 508 61.5 L 507 61.5 L 503.5 49 Z " /><path fill="rgb(34,13,21)" stroke="rgb(34,13,21)" stroke-width="1" opacity="0.9215686274509803" d="M 7.5 54 L 8 55.5 L 4.5 67 L 4 63.5 L 7.5 54 Z " /><path fill="rgb(34,13,21)" stroke="rgb(34,13,21)" stroke-width="1" opacity="0.9215686274509803" d="M 508.5 63 L 509 66.5 L 508 66.5 L 508.5 63 Z " /><path fill="rgb(34,13,21)" stroke="rgb(34,13,21)" stroke-width="1" opacity="0.9215686274509803" d="M 3.5 68 L 4 73.5 L 3 74.5 L 3 437.5 Q 5.3 438.7 4 443.5 L 3 443.5 Q 4.3 438.7 2 437.5 L 2 74.5 L 3.5 68 Z " /><path fill="rgb(34,13,21)" stroke="rgb(34,13,21)" stroke-width="1" opacity="0.9215686274509803" d="M 509.5 68 L 510 72.5 L 509 72.5 L 509.5 68 Z " /><path fill="rgb(34,13,21)" stroke="rgb(34,13,21)" stroke-width="1" opacity="0.9215686274509803" d="M 510.5 74 L 511 437.5 L 510 437.5 L 510.5 74 Z " /><path fill="rgb(34,13,21)" stroke="rgb(34,13,21)" stroke-width="1" opacity="0.9215686274509803" d="M 509.5 439 L 510 443.5 L 509 443.5 L 509.5 439 Z " /><path fill="rgb(34,13,21)" stroke="rgb(34,13,21)" stroke-width="1" opacity="0.9215686274509803" d="M 4.5 445 L 8 457.5 L 7 457.5 L 4 448.5 L 4.5 445 Z " /><path fill="rgb(34,13,21)" stroke="rgb(34,13,21)" stroke-width="1" opacity="0.9215686274509803" d="M 508.5 445 L 509 448.5 L 508 448.5 L 508.5 445 Z " /><path fill="rgb(34,13,21)" stroke="rgb(34,13,21)" stroke-width="1" opacity="0.9215686274509803" d="M 507.5 450 L 508 452.5 L 503.5 463 L 503 461.5 L 507.5 450 Z " /><path fill="rgb(34,13,21)" stroke="rgb(34,13,21)" stroke-width="1" opacity="0.9215686274509803" d="M 8.5 459 L 10 462.5 L 9 462.5 L 8.5 459 Z " /><path fill="rgb(34,13,21)" stroke="rgb(34,13,21)" stroke-width="1" opacity="0.9215686274509803" d="M 13.5 470 L 14.5 472 L 13.5 470 Z " /><path fill="rgb(34,13,21)" stroke="rgb(34,13,21)" stroke-width="1" opacity="0.9215686274509803" d="M 499.5 470 L 499 471.5 L 497.5 474 L 498 472.5 L 499.5 470 Z " /><path fill="rgb(34,13,21)" stroke="rgb(34,13,21)" stroke-width="1" opacity="0.9215686274509803" d="M 16.5 475 L 18.5 478 L 16.5 475 Z " /><path fill="rgb(34,13,21)" stroke="rgb(34,13,21)" stroke-width="1" opacity="0.9215686274509803" d="M 496.5 475 L 494.5 478 L 496.5 475 Z " /><path fill="rgb(34,13,21)" stroke="rgb(34,13,21)" stroke-width="1" opacity="0.9215686274509803" d="M 19.5 479 L 22.5 483 L 19.5 479 Z " /><path fill="rgb(34,13,21)" stroke="rgb(34,13,21)" stroke-width="1" opacity="0.9215686274509803" d="M 493.5 479 L 491.5 482 L 493.5 479 Z " /><path fill="rgb(34,13,21)" stroke="rgb(34,13,21)" stroke-width="1" opacity="0.9215686274509803" d="M 489.5 484 L 483.5 491 L 489.5 484 Z " /><path fill="rgb(34,13,21)" stroke="rgb(34,13,21)" stroke-width="1" opacity="0.9215686274509803" d="M 24.5 485 L 28.5 490 L 24.5 485 Z " /><path fill="rgb(34,13,21)" stroke="rgb(34,13,21)" stroke-width="1" opacity="0.9215686274509803" d="M 31.5 491 L 34.5 495 L 31.5 491 Z " /><path fill="rgb(34,13,21)" stroke="rgb(34,13,21)" stroke-width="1" opacity="0.9215686274509803" d="M 480.5 492 L 478.5 495 L 480.5 492 Z " /><path fill="rgb(34,13,21)" stroke="rgb(34,13,21)" stroke-width="1" opacity="0.9215686274509803" d="M 36.5 495 L 46 501.5 L 44.5 501 Q 38 499.3 36.5 495 Z " /><path fill="rgb(34,13,21)" stroke="rgb(34,13,21)" stroke-width="1" opacity="0.9215686274509803" d="M 476.5 495 L 474.5 498 L 467.5 502 L 468.5 500 L 476.5 495 Z " /><path fill="rgb(34,13,21)" stroke="rgb(34,13,21)" stroke-width="1" opacity="0.9215686274509803" d="M 51.5 504 L 64 508.5 L 61.5 509 L 51.5 505 L 51.5 504 Z " /><path fill="rgb(34,13,21)" stroke="rgb(34,13,21)" stroke-width="1" opacity="0.9215686274509803" d="M 460.5 504 L 462 504.5 L 449.5 509 L 449.5 508 L 460.5 504 Z " /><path fill="rgb(34,13,21)" stroke="rgb(34,13,21)" stroke-width="1" opacity="0.9215686274509803" d="M 65.5 509 L 68 509.5 L 65.5 510 L 65.5 509 Z " /><path fill="rgb(34,13,21)" stroke="rgb(34,13,21)" stroke-width="1" opacity="0.9215686274509803" d="M 445.5 509 L 448 509.5 L 445.5 510 L 445.5 509 Z " /><path fill="rgb(34,13,21)" stroke="rgb(34,13,21)" stroke-width="1" opacity="0.9215686274509803" d="M 70.5 510 L 74 510.5 L 70.5 511 L 70.5 510 Z " /><path fill="rgb(34,13,21)" stroke="rgb(34,13,21)" stroke-width="1" opacity="0.9215686274509803" d="M 439.5 510 L 443 510.5 L 439.5 511 L 439.5 510 Z " /><path fill="rgb(34,13,21)" stroke="rgb(34,13,21)" stroke-width="1" opacity="0.9215686274509803" d="M 76.5 511 L 437 511.5 L 76.5 512 L 76.5 511 Z " /><path fill="rgb(22,10,23)" stroke="rgb(22,10,23)" stroke-width="1" opacity="1" d="M 425.5 138 L 466 161.5 L 465.5 163 L 462.5 160 L 429.5 141 L 424.5 140 L 391.5 149 L 367.5 164 Q 327.5 183 290.5 205 L 200 249 Q 198.8 246 202.5 247 Q 226.3 233.3 253.5 223 Q 279 207.5 307.5 195 L 321.5 186 L 373.5 159 L 390.5 148 L 419.5 141 L 425.5 138 Z " /><path fill="rgb(22,10,23)" stroke="rgb(22,10,23)" stroke-width="1" opacity="1" d="M 462.5 164 L 464 164.5 L 461 166.5 L 465 171.5 L 426.5 190 L 423.5 190 L 422.5 189 L 396.5 188 L 312.5 235 L 313.5 233 L 395.5 187 L 408.5 187 L 409.5 188 Q 419.6 186.4 425.5 189 Q 443.5 178.7 464 172 L 459 165.5 L 462.5 164 Z " /><path fill="rgb(22,10,23)" stroke="rgb(22,10,23)" stroke-width="1" opacity="1" d="M 308.5 236 L 307.5 238 L 216.5 289 L 217.5 287 L 308.5 236 Z " /><path fill="rgb(22,10,23)" stroke="rgb(22,10,23)" stroke-width="1" opacity="1" d="M 197.5 249 L 199 249.5 L 124.5 285 L 116.5 290 L 101 296 L 100.5 298 L 98.5 298 L 91 302.5 L 89.5 305 L 17.5 332 L 17.5 331 L 35.5 323 L 38.5 323 L 54.5 316 L 90 304 L 92.5 299 L 197.5 249 Z " /><path fill="rgb(22,10,23)" stroke="rgb(22,10,23)" stroke-width="1" opacity="1" d="M 214.5 289 L 213.5 291 L 199 299 L 200 301.5 L 198.5 301 L 196 299.5 L 214.5 289 Z " /><path fill="rgb(22,10,23)" stroke="rgb(22,10,23)" stroke-width="1" opacity="1" d="M 397.5 291 L 402.5 291 L 411 295.5 L 422.5 308 L 432.5 310 L 440 315.5 L 445 322.5 L 445 327.5 L 426.5 350 L 400.5 351 L 399.5 352 L 379.5 352 L 378.5 353 L 359.5 353 L 358.5 354 L 339.5 354 L 338.5 355 L 268.5 357 L 267.5 358 L 225.5 360 L 224.5 361 L 153.5 361 L 152.5 362 L 141.5 362 L 140.5 363 L 119.5 364 L 118.5 365 L 108.5 365 L 107.5 366 L 97.5 366 L 96.5 367 L 85.5 367 L 83.5 368 L 82.5 367 L 67.5 366 L 59.5 363 L 30.5 351 L 24 345.5 L 26.5 347 L 68.5 365 L 95.5 366 L 96.5 365 L 117.5 364 L 118.5 363 L 139.5 362 L 140.5 361 L 151.5 361 L 152.5 360 L 223.5 360 L 224.5 359 L 237.5 359 L 238.5 358 L 264.5 357 L 265.5 356 L 287.5 356 L 288.5 355 L 311.5 355 L 312.5 354 L 335.5 354 L 336.5 353 L 415.5 350 L 416.5 349 L 426.5 349 L 430 345.5 L 444 327.5 L 444 322.5 L 435.5 313 L 431.5 311 L 423.5 310 L 411 298.5 L 407.5 294 L 398.5 292 L 391.5 294 L 382.5 299 L 359.5 299 L 358.5 300 L 312.5 301 L 311.5 302 L 281.5 302 L 280.5 303 L 252.5 303 L 251.5 304 L 222.5 304 L 221.5 305 L 220.5 304 L 211 303.5 L 250.5 303 L 251.5 302 L 268.5 302 L 269.5 301 L 345.5 299 L 346.5 298 L 374.5 298 L 375.5 297 L 383.5 297 L 397.5 291 Z " /><path fill="rgb(22,10,23)" stroke="rgb(22,10,23)" stroke-width="1" opacity="1" d="M 201.5 302 L 210 302.5 L 201.5 303 L 201.5 302 Z " /><path fill="rgb(22,10,23)" stroke="rgb(22,10,23)" stroke-width="1" opacity="1" d="M 15.5 332 L 19 337.5 L 20 342.5 L 18 341.5 L 18 337.5 Q 13.7 335.6 15.5 332 Z " /><path fill="rgb(22,10,23)" stroke="rgb(22,10,23)" stroke-width="1" opacity="1" d="M 21.5 343 L 22.5 345 L 21.5 343 Z " /><path fill="rgb(20,8,20)" stroke="rgb(20,8,20)" stroke-width="1" opacity="0.14901960784313725" d="M 69.5 0 L 76 0.5 L 66.5 2 L 66.5 1 L 69.5 0 Z " /><path fill="rgb(20,8,20)" stroke="rgb(20,8,20)" stroke-width="1" opacity="0.14901960784313725" d="M 437.5 0 Q 443.9 -0.9 447 1.5 L 443.5 2 Q 442.3 -0.3 437.5 1 L 437.5 0 Z " /><path fill="rgb(20,8,20)" stroke="rgb(20,8,20)" stroke-width="1" opacity="0.14901960784313725" d="M 62.5 2 L 65 2.5 L 62.5 3 L 62.5 2 Z " /><path fill="rgb(20,8,20)" stroke="rgb(20,8,20)" stroke-width="1" opacity="0.14901960784313725" d="M 448.5 2 L 451 2.5 L 448.5 3 L 448.5 2 Z " /><path fill="rgb(20,8,20)" stroke="rgb(20,8,20)" stroke-width="1" opacity="0.14901960784313725" d="M 51.5 6 L 53 6.5 Q 35.5 13.5 24 26.5 Q 14.2 36.7 8.5 51 L 8 49.5 Q 16 31 30.5 19 Q 39.5 11 51.5 6 Z " /><path fill="rgb(20,8,20)" stroke="rgb(20,8,20)" stroke-width="1" opacity="0.14901960784313725" d="M 460.5 6 Q 479.9 13.6 492 28.5 Q 500.4 37.6 505 50.5 L 504 50.5 Q 497.1 32.4 483.5 21 Q 474.1 11.9 460.5 7 L 460.5 6 Z " /><path fill="rgb(20,8,20)" stroke="rgb(20,8,20)" stroke-width="1" opacity="0.14901960784313725" d="M 7.5 52 L 8 53.5 L 6.5 56 L 6 54.5 L 7.5 52 Z " /><path fill="rgb(20,8,20)" stroke="rgb(20,8,20)" stroke-width="1" opacity="0.14901960784313725" d="M 508.5 60 L 509 62.5 L 508 62.5 L 508.5 60 Z " /><path fill="rgb(20,8,20)" stroke="rgb(20,8,20)" stroke-width="1" opacity="0.14901960784313725" d="M 509.5 64 Q 511.9 67.1 511 73.5 L 510 73.5 L 509.5 64 Z " /><path fill="rgb(20,8,20)" stroke="rgb(20,8,20)" stroke-width="1" opacity="0.14901960784313725" d="M 3.5 65 L 4 67.5 L 2.5 74 L 2 67.5 L 3.5 65 Z " /><path fill="rgb(20,8,20)" stroke="rgb(20,8,20)" stroke-width="1" opacity="0.14901960784313725" d="M 2.5 438 L 4 446.5 L 3 446.5 Q 0.7 443.6 2.5 438 Z " /><path fill="rgb(20,8,20)" stroke="rgb(20,8,20)" stroke-width="1" opacity="0.14901960784313725" d="M 510.5 438 L 511 444.5 L 509.5 448 L 509 444.5 L 510.5 438 Z " /><path fill="rgb(20,8,20)" stroke="rgb(20,8,20)" stroke-width="1" opacity="0.14901960784313725" d="M 508.5 449 L 509 451.5 L 508 451.5 L 508.5 449 Z " /><path fill="rgb(20,8,20)" stroke="rgb(20,8,20)" stroke-width="1" opacity="0.14901960784313725" d="M 6.5 456 L 8 459.5 L 7 459.5 L 6.5 456 Z " /><path fill="rgb(20,8,20)" stroke="rgb(20,8,20)" stroke-width="1" opacity="0.14901960784313725" d="M 8.5 461 Q 15.5 478.5 28.5 490 Q 38.5 500 53 505.5 L 51.5 506 Q 33 498 21 483.5 Q 11.9 473.8 8.5 461 Z " /><path fill="rgb(20,8,20)" stroke="rgb(20,8,20)" stroke-width="1" opacity="0.14901960784313725" d="M 504.5 461 L 505 462.5 Q 497 481 482.5 493 Q 473.4 501.4 460.5 506 L 460.5 505 Q 478.6 498.1 490 484.5 Q 499.2 474.7 504.5 461 Z " /><path fill="rgb(20,8,20)" stroke="rgb(20,8,20)" stroke-width="1" opacity="0.14901960784313725" d="M 62.5 509 L 65 509.5 L 62.5 510 L 62.5 509 Z " /><path fill="rgb(20,8,20)" stroke="rgb(20,8,20)" stroke-width="1" opacity="0.14901960784313725" d="M 448.5 509 L 451 509.5 L 448.5 510 L 448.5 509 Z " /><path fill="rgb(20,8,20)" stroke="rgb(20,8,20)" stroke-width="1" opacity="0.14901960784313725" d="M 66.5 510 L 76 511.5 L 69.5 512 L 66.5 511 L 66.5 510 Z " /><path fill="rgb(20,8,20)" stroke="rgb(20,8,20)" stroke-width="1" opacity="0.14901960784313725" d="M 443.5 510 L 447 510.5 Q 443.9 512.9 437.5 512 L 437.5 511 Q 442.3 512.2 443.5 510 Z " /><path fill="rgb(23,11,23)" stroke="rgb(23,11,23)" stroke-width="1" opacity="1" d="M 85.5 0 L 86.5 1 L 426.5 1 L 428.5 1 L 436.5 1 L 437.5 2 L 439.5 2 L 448.5 3 L 462.5 8 Q 479.6 15.9 491 29.5 L 502 46.5 L 508 62.5 L 508 67.5 L 510 73.5 L 510 75.5 L 510 438.5 L 508 444.5 L 508 449.5 L 501 467.5 Q 493.4 481.9 481.5 492 L 462.5 504 L 448.5 509 L 438.5 511 L 436.5 511 L 76.5 511 L 75.5 510 L 73.5 510 L 64.5 509 L 50.5 504 Q 34.3 496.3 23 483.5 L 10 463.5 L 6 452.5 L 3 436.5 L 3 75.5 L 6 59.5 L 10 48.5 Q 17.2 32.7 29.5 22 L 50.5 8 L 64.5 3 L 74.5 1 L 76.5 1 L 84.5 1 L 85.5 0 Z M 426 138 L 421 140 L 421 142 L 420 141 L 416 142 L 418 142 L 418 143 L 416 142 L 406 144 L 406 146 L 405 145 L 401 146 L 403 146 L 403 147 L 401 146 L 391 148 L 389 152 L 389 150 L 386 151 L 384 155 L 384 153 L 379 156 L 381 156 L 382 156 L 377 159 L 375 160 L 378 158 L 379 156 L 360 166 L 359 169 L 357 168 L 357 170 L 356 169 L 353 170 L 352 173 L 350 172 L 350 174 L 348 173 L 348 175 L 346 174 L 346 176 L 344 175 L 344 177 L 342 176 L 342 178 L 340 177 L 340 179 L 338 178 L 338 180 L 333 183 L 333 181 L 322 186 L 321 188 L 326 186 L 327 186 L 320 190 L 320 188 L 313 191 L 312 194 L 310 193 L 309 196 L 307 195 L 307 197 L 305 196 L 305 198 L 303 197 L 303 199 L 301 198 L 301 200 L 299 199 L 299 201 L 297 200 L 297 202 L 295 201 L 295 203 L 293 202 L 292 205 L 292 203 L 275 211 L 274 213 L 279 211 L 280 211 L 269 217 L 269 215 L 258 220 L 257 223 L 255 222 L 255 224 L 254 223 L 250 224 L 250 226 L 248 225 L 248 227 L 246 226 L 246 228 L 244 227 L 244 229 L 242 228 L 242 230 L 241 229 L 232 233 L 234 234 L 226 238 L 224 238 L 230 235 L 230 234 L 215 241 L 217 242 L 213 244 L 213 242 L 200 247 L 200 250 L 198 249 L 198 251 L 196 250 L 196 252 L 194 251 L 194 253 L 192 252 L 192 254 L 190 253 L 190 255 L 189 254 L 180 258 L 182 258 L 182 259 L 179 258 L 179 260 L 177 259 L 177 261 L 176 260 L 165 265 L 167 266 L 153 273 L 151 273 L 157 270 L 157 269 L 145 274 L 144 277 L 142 276 L 142 278 L 140 277 L 140 279 L 138 278 L 138 280 L 136 279 L 136 281 L 135 280 L 124 285 L 126 286 L 124 287 L 124 285 L 109 292 L 111 293 L 103 297 L 101 296 L 91 301 L 92 302 L 99 298 L 100 298 L 94 301 Q 92 304 90 303 L 91 305 L 90 304 L 83 306 L 83 308 L 82 307 L 75 309 L 75 311 L 74 310 L 63 314 L 65 315 L 63 316 L 61 316 L 63 315 L 63 314 L 48 319 L 48 320 L 51 319 L 52 320 L 39 325 L 37 325 L 39 324 L 39 323 L 36 323 L 20 330 L 20 332 L 19 331 Q 16 330 17 333 L 15 333 L 16 336 Q 17 338 19 336 L 21 342 L 35 350 L 67 364 L 65 365 L 68 366 L 83 367 L 84 368 L 86 367 L 97 367 L 98 366 L 108 366 L 109 365 L 119 365 L 120 364 L 141 363 L 142 362 L 153 362 L 154 361 L 225 361 L 226 360 L 268 358 L 269 357 L 339 355 L 340 354 L 359 354 L 360 353 L 379 353 L 380 352 L 400 352 L 401 351 L 427 350 L 427 349 L 398 350 L 397 351 L 377 351 L 376 352 L 357 352 L 356 353 L 337 353 L 336 354 L 266 356 L 265 357 L 239 358 L 238 359 L 225 359 L 224 360 L 153 360 L 152 361 L 141 361 L 152 360 L 153 359 L 224 359 L 225 358 L 237 358 L 238 357 L 250 357 L 251 356 L 263 356 L 264 355 L 351 352 L 352 351 L 369 351 L 370 350 L 389 350 L 390 349 L 411 349 L 412 348 L 426 348 L 428 347 L 443 328 Q 444 321 440 320 L 444 322 L 444 321 L 435 314 L 440 317 L 440 316 L 433 310 Q 426 311 424 308 L 422 309 L 418 306 L 419 305 L 412 297 L 411 298 L 406 295 L 408 294 L 403 291 L 398 291 L 391 293 L 384 297 L 376 297 L 375 298 L 290 300 L 289 301 L 252 302 L 251 303 L 212 303 L 211 304 Q 200 306 197 301 Q 194 302 195 300 L 217 287 L 219 288 L 219 286 L 221 287 L 220 286 L 256 265 L 256 267 Q 259 267 260 265 L 259 264 L 257 265 L 265 260 L 267 261 L 266 260 L 304 238 L 303 240 L 305 240 Q 307 239 305 238 L 313 233 L 315 234 L 314 233 L 320 229 L 320 231 L 324 229 L 323 228 L 321 229 L 352 211 L 352 213 L 356 211 L 355 210 L 353 211 L 361 206 L 363 207 L 362 206 L 368 202 L 368 204 L 372 202 L 371 201 L 369 202 L 396 186 L 416 186 L 425 188 L 433 184 L 434 185 L 424 189 L 424 190 L 427 190 L 439 184 L 437 183 L 440 181 L 443 182 L 443 180 L 445 181 L 444 180 L 446 180 L 448 180 L 446 179 L 449 177 L 451 178 L 455 177 L 453 176 L 462 171 L 458 166 L 461 167 L 462 166 L 460 165 L 464 163 L 462 161 L 461 159 L 466 163 L 466 162 L 459 157 L 459 159 L 455 157 L 457 157 L 458 157 L 452 153 L 452 155 L 451 152 L 449 153 L 449 152 L 445 149 L 445 151 L 444 148 L 442 149 L 442 147 L 440 148 L 440 147 L 438 145 L 438 147 L 437 144 L 435 145 L 435 143 L 433 144 L 432 141 L 430 142 L 430 141 L 426 138 Z M 462 172 L 460 173 L 460 174 L 464 173 L 462 172 Z M 396 187 L 393 189 L 393 190 L 397 188 L 406 188 L 407 189 L 423 189 L 396 187 Z M 391 190 L 387 192 L 386 194 L 392 191 L 391 190 Z M 380 196 L 378 197 L 377 199 L 381 197 L 380 196 Z M 350 213 L 349 215 L 351 214 L 350 213 Z M 345 216 L 341 218 L 340 220 L 346 217 L 345 216 Z M 336 221 L 332 223 L 331 225 L 337 222 L 336 221 Z M 302 240 L 300 241 L 299 243 L 303 241 L 302 240 Z M 297 243 L 295 244 L 294 246 L 298 244 L 297 243 Z M 290 247 L 288 248 L 288 249 L 291 248 L 290 247 Z M 286 249 L 284 250 L 283 252 L 287 250 L 286 249 Z M 277 254 L 275 255 L 274 257 L 278 255 L 277 254 Z M 254 267 L 253 269 L 255 268 L 254 267 Z M 247 271 L 245 272 L 244 274 L 248 272 L 247 271 Z M 240 275 L 236 277 L 235 279 L 241 276 L 240 275 Z M 229 281 L 227 282 L 226 284 L 230 282 L 229 281 Z M 211 291 L 210 293 L 212 292 L 211 291 Z M 208 293 L 204 295 L 203 297 L 209 294 L 208 293 Z M 103 294 L 102 296 L 105 295 L 103 294 Z M 409 294 L 411 297 L 411 296 L 409 294 Z M 201 297 L 197 299 L 198 301 Q 200 302 199 299 L 202 298 L 201 297 Z M 202 302 L 202 303 L 210 303 L 202 302 Z M 45 320 L 40 322 L 40 323 L 47 321 L 45 320 Z M 445 322 L 444 328 L 445 328 L 445 322 Z M 444 328 L 441 332 L 444 330 L 444 328 Z M 441 332 L 438 336 L 441 334 L 441 332 Z M 19 337 L 18 342 L 19 342 L 19 337 Z M 437 337 L 434 341 L 437 339 L 437 337 Z M 433 342 L 430 346 L 433 344 L 433 342 Z M 27 347 L 28 349 L 29 349 L 27 347 Z M 30 349 L 31 351 L 33 351 L 30 349 Z M 34 351 L 34 352 L 41 355 L 43 355 L 34 351 Z M 46 356 L 46 357 L 53 360 L 55 360 L 46 356 Z M 58 361 L 60 363 L 62 363 L 58 361 Z M 63 363 L 63 364 L 65 364 L 63 363 Z " /><path fill="rgb(23,11,23)" stroke="rgb(23,11,23)" stroke-width="1" opacity="1" d="M 371.5 161 L 370.5 163 L 368.5 164 L 369.5 162 L 371.5 161 Z " /><path fill="rgb(23,11,23)" stroke="rgb(23,11,23)" stroke-width="1" opacity="1" d="M 120.5 287 L 122 287.5 L 117.5 290 L 118.5 288 L 120.5 287 Z " /><path fill="rgb(23,11,23)" stroke="rgb(23,11,23)" stroke-width="1" opacity="1" d="M 114.5 290 L 116 290.5 L 112.5 292 L 112.5 291 L 114.5 290 Z " /><path fill="rgb(23,11,23)" stroke="rgb(23,11,23)" stroke-width="1" opacity="1" d="M 398.5 292 L 402 292.5 L 395.5 294 L 395.5 293 L 398.5 292 Z " /><path fill="rgb(23,11,23)" stroke="rgb(23,11,23)" stroke-width="1" opacity="1" d="M 391.5 294 L 394 294.5 L 383.5 299 L 383.5 298 L 391.5 294 Z " /><path fill="rgb(23,11,23)" stroke="rgb(23,11,23)" stroke-width="1" opacity="1" d="M 359.5 299 L 381 299.5 L 359.5 300 L 359.5 299 Z " /><path fill="rgb(23,11,23)" stroke="rgb(23,11,23)" stroke-width="1" opacity="1" d="M 411.5 299 L 413.5 302 L 411.5 299 Z " /><path fill="rgb(23,11,23)" stroke="rgb(23,11,23)" stroke-width="1" opacity="1" d="M 342.5 300 L 351 300.5 L 342.5 301 L 342.5 300 Z " /><path fill="rgb(23,11,23)" stroke="rgb(23,11,23)" stroke-width="1" opacity="1" d="M 312.5 301 L 321 301.5 L 312.5 302 L 312.5 301 Z " /><path fill="rgb(23,11,23)" stroke="rgb(23,11,23)" stroke-width="1" opacity="1" d="M 281.5 302 L 291 302.5 L 281.5 303 L 281.5 302 Z " /><path fill="rgb(23,11,23)" stroke="rgb(23,11,23)" stroke-width="1" opacity="1" d="M 252.5 303 L 264 303.5 L 252.5 304 L 252.5 303 Z " /><path fill="rgb(23,11,23)" stroke="rgb(23,11,23)" stroke-width="1" opacity="1" d="M 212.5 304 L 221 304.5 L 212.5 305 L 212.5 304 Z " /><path fill="rgb(23,11,23)" stroke="rgb(23,11,23)" stroke-width="1" opacity="1" d="M 222.5 304 L 244 304.5 L 222.5 305 L 222.5 304 Z " /><path fill="rgb(23,11,23)" stroke="rgb(23,11,23)" stroke-width="1" opacity="1" d="M 58.5 316 L 60 316.5 L 56.5 318 L 56.5 317 L 58.5 316 Z " /><path fill="rgb(23,11,23)" stroke="rgb(23,11,23)" stroke-width="1" opacity="1" d="M 130.5 361 L 140 361.5 L 130.5 362 L 130.5 361 Z " /><path fill="rgb(23,11,23)" stroke="rgb(23,11,23)" stroke-width="1" opacity="1" d="M 120.5 362 L 129 362.5 L 120.5 363 L 120.5 362 Z " /><path fill="rgb(23,11,23)" stroke="rgb(23,11,23)" stroke-width="1" opacity="1" d="M 110.5 363 L 118 363.5 L 110.5 364 L 110.5 363 Z " /><path fill="rgb(23,11,23)" stroke="rgb(23,11,23)" stroke-width="1" opacity="1" d="M 68.5 364 L 73 364.5 L 68.5 365 L 68.5 364 Z " /><path fill="rgb(23,11,23)" stroke="rgb(23,11,23)" stroke-width="1" opacity="1" d="M 99.5 364 L 107 364.5 L 99.5 365 L 99.5 364 Z " /><path fill="rgb(23,11,23)" stroke="rgb(23,11,23)" stroke-width="1" opacity="1" d="M 76.5 365 L 82 365.5 L 76.5 366 L 76.5 365 Z " /><path fill="rgb(23,11,23)" stroke="rgb(23,11,23)" stroke-width="1" opacity="1" d="M 88.5 365 L 96 365.5 L 88.5 366 L 88.5 365 Z " /><path fill="rgb(0,0,0)" stroke="rgb(0,0,0)" stroke-width="1" opacity="0" d="M 0 0 L 69 0.5 Q 38 7.5 21 28.5 L 8 49.5 L 4 64.5 L 2 67.5 L 2 444.5 L 4 447.5 L 6 457.5 L 12 470.5 Q 19.4 483.6 30.5 493 Q 45.7 506.3 69 511.5 L 0 512 L 0 0 Z " /><path fill="rgb(0,0,0)" stroke="rgb(0,0,0)" stroke-width="1" opacity="0" d="M 444.5 0 L 511.5 0 L 512 0.5 L 512 512 L 444 511.5 Q 475 504.5 492 483.5 Q 500 474.5 505 462.5 L 511 444.5 L 511 67.5 L 507 54.5 L 500 39.5 Q 492.8 27.8 482.5 19 L 471.5 11 Q 460.2 3.8 444.5 1 L 444.5 0 Z " /><path fill="rgb(253,143,6)" stroke="rgb(253,143,6)" stroke-width="1" opacity="1" d="M 461.5 161 L 462 163 L 459.5 164 L 461.5 161 Z " /><path fill="rgb(253,143,6)" stroke="rgb(253,143,6)" stroke-width="1" opacity="1" d="M 457.5 164 L 457 165.5 Q 457.8 167.8 455.5 167 L 423.5 183 Q 418.7 185.3 410.5 184 L 402.5 182 L 391.5 182 L 369.5 195 L 370.5 193 L 391.5 181 L 403.5 181 L 411.5 183 L 420.5 183 L 452.5 168 L 457.5 164 Z " /><path fill="rgb(253,143,6)" stroke="rgb(253,143,6)" stroke-width="1" opacity="1" d="M 367.5 195 L 366.5 197 L 321.5 222 L 322.5 220 L 367.5 195 Z " /><path fill="rgb(253,143,6)" stroke="rgb(253,143,6)" stroke-width="1" opacity="1" d="M 318.5 222 L 320 222.5 L 305.5 231 L 306.5 229 L 318.5 222 Z " /><path fill="rgb(253,143,6)" stroke="rgb(253,143,6)" stroke-width="1" opacity="1" d="M 302.5 231 L 304 231.5 L 287.5 241 L 288.5 239 L 302.5 231 Z " /><path fill="rgb(253,143,6)" stroke="rgb(253,143,6)" stroke-width="1" opacity="1" d="M 285.5 241 L 284.5 243 L 262.5 255 L 263.5 253 L 285.5 241 Z " /><path fill="rgb(253,143,6)" stroke="rgb(253,143,6)" stroke-width="1" opacity="1" d="M 260.5 255 L 259.5 257 L 232.5 272 L 233.5 270 L 260.5 255 Z " /><path fill="rgb(253,143,6)" stroke="rgb(253,143,6)" stroke-width="1" opacity="1" d="M 229.5 272 L 231 272.5 L 181 301.5 L 181 304 L 187 304 L 187 306 L 174 305.5 L 175 304.5 L 171.5 301 L 133.5 301 L 132.5 300 L 114.5 300 L 112 299 L 111 293 L 113 293.5 L 113 295.5 L 114.5 299 L 122.5 299 L 123.5 298 L 127.5 299 L 129.5 299 L 134.5 300 L 136.5 299 Q 137.8 301.2 142.5 300 Q 144 297.5 149.5 299 L 150.5 300 L 171.5 300 Q 172 303.5 176.5 303 L 178.5 303 Q 181.1 303.8 180 300.5 L 182.5 298 L 201 289 L 201 287 Q 198.3 288.1 199 285.5 L 200 283 L 203 284.5 Q 201.9 287.8 204.5 287 L 229.5 272 Z " /><path fill="rgb(253,143,6)" stroke="rgb(253,143,6)" stroke-width="1" opacity="1" d="M 137.5 283 L 141 284.5 Q 142.8 289.8 137.5 288 L 136 284.5 L 137.5 283 Z M 138 285 L 138 287 L 140 286 L 138 285 Z " /><path fill="rgb(253,143,6)" stroke="rgb(253,143,6)" stroke-width="1" opacity="1" d="M 147 283 Q 153.4 280.9 151 288 L 147 288 L 147 286.5 L 147 284.5 L 147 283 Z " /><path fill="rgb(253,143,6)" stroke="rgb(253,143,6)" stroke-width="1" opacity="1" d="M 159.5 283 L 162 284.5 L 160.5 288 L 157 286.5 Q 155.9 283.2 158.5 284 L 159.5 283 Z " /><path fill="rgb(253,143,6)" stroke="rgb(253,143,6)" stroke-width="1" opacity="1" d="M 169.5 283 L 172 284.5 Q 173.8 289.8 168.5 288 L 167 285.5 L 169.5 283 Z M 169 285 L 169 287 L 171 286 L 169 285 Z " /><path fill="rgb(253,143,6)" stroke="rgb(253,143,6)" stroke-width="1" opacity="1" d="M 179.5 283 L 183 285.5 Q 184.3 289.7 179.5 288 L 178 284.5 L 179.5 283 Z " /><path fill="rgb(253,143,6)" stroke="rgb(253,143,6)" stroke-width="1" opacity="1" d="M 189.5 283 L 193 284.5 Q 194.3 288.7 189.5 287 L 188 284.5 L 189.5 283 Z " /><path fill="rgb(253,143,6)" stroke="rgb(253,143,6)" stroke-width="1" opacity="1" d="M 126.5 286 L 128.5 289 L 130.5 289 L 132 289 L 132 294 Q 128.2 295 127 292.5 Q 128.9 287.1 125.5 288 L 117.5 293 L 114.5 293 L 114.5 292 L 126.5 286 Z M 129 290 Q 128 293 131 292 Q 132 289 129 290 Z " /><path fill="rgb(253,143,6)" stroke="rgb(253,143,6)" stroke-width="1" opacity="1" d="M 401.5 294 L 404 294.5 L 401.5 295 L 401.5 294 Z " /><path fill="rgb(253,143,6)" stroke="rgb(253,143,6)" stroke-width="1" opacity="1" d="M 407.5 296 L 409.5 299 L 407.5 296 Z " /><path fill="rgb(253,143,6)" stroke="rgb(253,143,6)" stroke-width="1" opacity="1" d="M 370.5 300 L 383 300.5 L 370.5 301 L 370.5 300 Z " /><path fill="rgb(253,143,6)" stroke="rgb(253,143,6)" stroke-width="1" opacity="1" d="M 397 300 Q 404.1 297.6 402 304 Q 398.2 305 397 302.5 L 397 300 Z M 398 301 L 398 303 L 401 302 L 398 301 Z " /><path fill="rgb(253,143,6)" stroke="rgb(253,143,6)" stroke-width="1" opacity="1" d="M 340.5 301 L 356 301.5 L 340.5 302 L 340.5 301 Z " /><path fill="rgb(253,143,6)" stroke="rgb(253,143,6)" stroke-width="1" opacity="1" d="M 312.5 302 L 326 302.5 L 312.5 303 L 312.5 302 Z " /><path fill="rgb(253,143,6)" stroke="rgb(253,143,6)" stroke-width="1" opacity="1" d="M 94 303 L 112 303.5 L 98 304.5 L 105 307.5 L 102.5 308 Q 101.3 304.8 95.5 306 L 96 307.5 L 97.5 310 L 106.5 311 L 108 308.5 L 107.5 307 L 110 308.5 L 108.5 312 L 97.5 311 L 91 305.5 L 94 305 L 94 303 Z " /><path fill="rgb(253,143,6)" stroke="rgb(253,143,6)" stroke-width="1" opacity="1" d="M 114.5 303 Q 119.5 307 130.5 305 Q 132.4 301.3 139 303 L 140 308.5 L 142.5 311 L 153.5 310 Q 154.8 312.3 159.5 311 L 162.5 309 Q 165.1 312.4 172.5 311 Q 174 307.5 175.5 310 L 187.5 310 L 196.5 308 L 201 309 Q 199.7 312.3 204.5 311 L 220 308 Q 221 311 218 310 L 218 313 L 223.5 311 L 227.5 311 L 228.5 312 L 365 312.5 L 228.5 313 L 224.5 312 Q 222.8 314.8 217.5 314 L 216 311 L 213.5 312 Q 212 309.5 206.5 311 L 201.5 312 L 200.5 311 L 190.5 311 L 188.5 312 L 185.5 311 L 183 311.5 Q 184.7 317.8 182 319.5 L 183 324 L 177 324 L 177 321.5 L 178 319.5 Q 176.8 316.8 175.5 319 Q 172.9 319.7 174 317 L 176.5 316 L 179 317 L 178 311 Q 174.2 309.5 175 312.5 L 173.5 312 L 172 312 L 172 317 L 167 317 L 167 319.5 L 165 319.5 Q 166 324 163.5 325 L 160 323.5 L 161.5 320 L 165 318.5 Q 162.5 317 166 315.5 L 167 312 Q 161.6 310.5 160 313.5 Q 162.3 314.8 159.5 316 L 156 315 Q 157.7 310.9 153.5 312 L 150.5 311 L 148.5 312 L 146.5 312 Q 139.6 312.9 138 308.5 Q 140.3 301.8 133.5 304 L 131.5 306 L 116 306 Q 117.1 303.3 114.5 304 L 114.5 303 Z M 168 314 Q 167 317 170 316 Q 171 313 168 314 Z M 180 318 L 180 319 L 182 319 L 180 318 Z M 162 321 L 162 323 L 164 322 L 162 321 Z M 180 321 Q 180 325 182 322 L 180 321 Z " /><path fill="rgb(253,143,6)" stroke="rgb(253,143,6)" stroke-width="1" opacity="1" d="M 286.5 303 L 297.5 303 L 304 304.5 L 275.5 305 L 275.5 304 L 285.5 304 L 286.5 303 Z " /><path fill="rgb(253,143,6)" stroke="rgb(253,143,6)" stroke-width="1" opacity="1" d="M 414.5 303 L 417.5 307 L 414.5 303 Z " /><path fill="rgb(253,143,6)" stroke="rgb(253,143,6)" stroke-width="1" opacity="1" d="M 190.5 304 Q 196.5 302.5 198 305.5 Q 196.4 308.5 191 307 L 190.5 304 Z " /><path fill="rgb(253,143,6)" stroke="rgb(253,143,6)" stroke-width="1" opacity="1" d="M 314.5 304 L 317 304.5 L 314.5 305 L 314.5 304 Z " /><path fill="rgb(253,143,6)" stroke="rgb(253,143,6)" stroke-width="1" opacity="1" d="M 326.5 304 L 333 304.5 L 326.5 305 L 326.5 304 Z " /><path fill="rgb(253,143,6)" stroke="rgb(253,143,6)" stroke-width="1" opacity="1" d="M 360.5 304 L 363 304.5 L 360.5 305 L 360.5 304 Z " /><path fill="rgb(253,143,6)" stroke="rgb(253,143,6)" stroke-width="1" opacity="1" d="M 365.5 304 Q 370.7 303.2 371.5 307 L 378.5 307 L 382 309.5 Q 380.3 312.8 374.5 312 L 370.5 311 L 366.5 312 L 366.5 311 L 373.5 310 L 377.5 311 Q 380.5 309.5 377.5 308 Q 370.8 309.8 369 306.5 Q 369.9 303.5 365.5 305 L 365.5 304 Z " /><path fill="rgb(253,143,6)" stroke="rgb(253,143,6)" stroke-width="1" opacity="1" d="M 142.5 305 L 144 308 L 141 306.5 L 142.5 305 Z " /><path fill="rgb(253,143,6)" stroke="rgb(253,143,6)" stroke-width="1" opacity="1" d="M 149.5 306 Q 155.3 304.3 154 308 L 148 307.5 L 149.5 306 Z " /><path fill="rgb(253,143,6)" stroke="rgb(253,143,6)" stroke-width="1" opacity="1" d="M 159.5 306 L 163 307.5 L 158.5 308 L 159.5 306 Z " /><path fill="rgb(253,143,6)" stroke="rgb(253,143,6)" stroke-width="1" opacity="1" d="M 117.5 307 L 120 308.5 Q 121.8 313.8 116.5 312 L 115 308 L 117.5 307 Z M 117 309 Q 117 313 119 310 L 117 309 Z " /><path fill="rgb(253,143,6)" stroke="rgb(253,143,6)" stroke-width="1" opacity="1" d="M 404.5 307 L 407 307 L 407 312 L 403 310.5 L 404.5 307 Z " /><path fill="rgb(253,143,6)" stroke="rgb(253,143,6)" stroke-width="1" opacity="1" d="M 127 308 L 134 308 L 134 311 L 128.5 312 L 127 308 Z M 130 309 L 130 310 L 133 310 L 130 309 Z " /><path fill="rgb(253,143,6)" stroke="rgb(253,143,6)" stroke-width="1" opacity="1" d="M 421.5 309 L 422.5 311 L 421.5 309 Z " /><path fill="rgb(253,143,6)" stroke="rgb(253,143,6)" stroke-width="1" opacity="1" d="M 153.5 313 L 155 315.5 Q 154.3 318.8 149.5 318 L 148 314 L 153.5 313 Z M 151 315 Q 149 318 152 317 L 151 315 Z " /><path fill="rgb(253,143,6)" stroke="rgb(253,143,6)" stroke-width="1" opacity="1" d="M 125 314 L 130 314 L 130 317.5 L 126.5 319 Q 124 317.8 125 314 Z M 128 315 Q 126 318 129 317 L 128 315 Z " /><path fill="rgb(253,143,6)" stroke="rgb(253,143,6)" stroke-width="1" opacity="1" d="M 137.5 314 L 141 315.5 L 139.5 319 L 136 318 L 137.5 314 Z M 138 315 Q 137 318 140 317 Q 141 314 138 315 Z " /><path fill="rgb(253,143,6)" stroke="rgb(253,143,6)" stroke-width="1" opacity="1" d="M 434.5 314 L 439 318.5 L 439 322.5 L 437.5 325 L 437 323.5 L 438 318.5 L 434.5 314 Z " /><path fill="rgb(253,143,6)" stroke="rgb(253,143,6)" stroke-width="1" opacity="1" d="M 62.5 316 L 64 316.5 L 60.5 318 L 60.5 317 L 62.5 316 Z " /><path fill="rgb(253,143,6)" stroke="rgb(253,143,6)" stroke-width="1" opacity="1" d="M 171.5 318 Q 174.3 319.3 172 320.5 L 171.5 322 L 171.5 318 Z " /><path fill="rgb(253,143,6)" stroke="rgb(253,143,6)" stroke-width="1" opacity="1" d="M 208.5 318 L 211 319.5 Q 211.8 323.3 209.5 324 Q 204.9 325.4 207 319.5 L 208.5 318 Z " /><path fill="rgb(253,143,6)" stroke="rgb(253,143,6)" stroke-width="1" opacity="1" d="M 194.5 319 L 197 320.5 L 197 322.5 L 195.5 325 L 192 323.5 L 191 321.5 L 194.5 319 Z " /><path fill="rgb(253,143,6)" stroke="rgb(253,143,6)" stroke-width="1" opacity="1" d="M 117.5 320 L 121 321 L 121 325 L 119.5 325 L 119.5 326 Q 121.8 325.3 121 327.5 L 123 330.5 Q 122.5 333.5 118.5 333 Q 116.3 332.3 117 328.5 L 118 326.5 L 115 324.5 L 117.5 320 Z M 117 322 Q 116 325 119 324 Q 120 321 117 322 Z M 118 329 Q 117 332 121 331 Q 122 328 118 329 Z " /><path fill="rgb(253,143,6)" stroke="rgb(253,143,6)" stroke-width="1" opacity="1" d="M 143 320 Q 146.8 319 148 321.5 L 146.5 325 Q 142.8 325.8 142 323.5 L 143 320 Z M 145 322 L 146 324 Q 147 321 145 322 Z " /><path fill="rgb(253,143,6)" stroke="rgb(253,143,6)" stroke-width="1" opacity="1" d="M 50.5 321 L 52 321.5 L 45.5 324 L 45.5 323 L 50.5 321 Z " /><path fill="rgb(253,143,6)" stroke="rgb(253,143,6)" stroke-width="1" opacity="1" d="M 129 321 Q 135 319 133 325 L 130.5 326 L 128 325 L 129 321 Z M 131 322 Q 129 325 132 324 L 131 322 Z " /><path fill="rgb(253,143,6)" stroke="rgb(253,143,6)" stroke-width="1" opacity="1" d="M 39.5 325 L 41 325.5 L 37.5 327 L 37.5 326 L 39.5 325 Z " /><path fill="rgb(253,143,6)" stroke="rgb(253,143,6)" stroke-width="1" opacity="1" d="M 436.5 326 L 436 327.5 L 423.5 343 Q 421.5 346 415.5 345 L 414.5 344 L 383 343.5 L 414.5 343 Q 415.8 345.2 420.5 344 L 430 334.5 L 430 333 Q 432.7 334.1 432 331.5 L 436.5 326 Z " /><path fill="rgb(253,143,6)" stroke="rgb(253,143,6)" stroke-width="1" opacity="1" d="M 58 327 L 62 327 L 62 328.5 L 63 330.5 Q 61.8 333 58 332 L 58 327 Z M 59 329 Q 58 332 61 331 Q 62 328 59 329 Z " /><path fill="rgb(253,143,6)" stroke="rgb(253,143,6)" stroke-width="1" opacity="1" d="M 70.5 327 L 74 328.5 L 74 332 L 69 332 Q 68 328.2 70.5 327 Z M 72 329 Q 70 332 73 331 L 72 329 Z " /><path fill="rgb(253,143,6)" stroke="rgb(253,143,6)" stroke-width="1" opacity="1" d="M 82 327 Q 85.8 326 87 328.5 Q 88.5 332.9 85.5 332 L 83.5 332 Q 79.8 333.3 81 329.5 L 82 327 Z M 83 329 Q 82 332 85 331 Q 86 328 83 329 Z " /><path fill="rgb(253,143,6)" stroke="rgb(253,143,6)" stroke-width="1" opacity="1" d="M 96.5 327 L 99 328.5 Q 100.5 332.9 97.5 332 L 95.5 333 L 93 332 L 94.5 328 L 96.5 327 Z M 97 329 L 95 331 L 97 331 L 97 329 Z " /><path fill="rgb(253,143,6)" stroke="rgb(253,143,6)" stroke-width="1" opacity="1" d="M 109.5 327 Q 111.8 327.8 111 331.5 L 107.5 333 Q 103.2 331.3 106 329.5 Q 105.2 326.9 108.5 328 L 109.5 327 Z M 109 329 L 107 331 L 109 331 L 109 329 Z " /><path fill="rgb(253,143,6)" stroke="rgb(253,143,6)" stroke-width="1" opacity="1" d="M 132.5 327 L 133 329.5 L 131.5 333 L 129 331.5 L 130.5 328 L 132.5 327 Z " /><path fill="rgb(253,143,6)" stroke="rgb(253,143,6)" stroke-width="1" opacity="1" d="M 190.5 327 Q 193.8 327.8 193 332.5 L 190.5 334 Q 187.5 333.5 188 329.5 L 190.5 327 Z " /><path fill="rgb(253,143,6)" stroke="rgb(253,143,6)" stroke-width="1" opacity="1" d="M 31.5 328 L 33 328.5 L 23.5 332 L 23.5 331 L 31.5 328 Z " /><path fill="rgb(253,143,6)" stroke="rgb(253,143,6)" stroke-width="1" opacity="1" d="M 142 328 Q 148.4 325.9 146 333 Q 142.2 333.8 141 330.5 L 142 328 Z M 144 329 Q 142 332 145 331 L 144 329 Z " /><path fill="rgb(253,143,6)" stroke="rgb(253,143,6)" stroke-width="1" opacity="1" d="M 154.5 328 L 158 328 L 158 333 Q 154.2 334 153 331.5 L 154.5 328 Z M 155 329 Q 154 332 157 331 Q 158 328 155 329 Z " /><path fill="rgb(253,143,6)" stroke="rgb(253,143,6)" stroke-width="1" opacity="1" d="M 165 328 Q 168.8 327 170 329.5 L 168.5 333 L 165 331.5 L 165 328 Z " /><path fill="rgb(253,143,6)" stroke="rgb(253,143,6)" stroke-width="1" opacity="1" d="M 178.5 328 L 182 329.5 L 181 333 L 177 331.5 L 178.5 328 Z " /><path fill="rgb(253,143,6)" stroke="rgb(253,143,6)" stroke-width="1" opacity="1" d="M 204.5 328 L 208 329.5 L 207 333 Q 201.4 335.2 203 329.5 L 204.5 328 Z " /><path fill="rgb(253,143,6)" stroke="rgb(253,143,6)" stroke-width="1" opacity="1" d="M 218.5 328 L 221 331.5 L 217.5 334 L 215 333 Q 212.9 327.8 217.5 329 L 218.5 328 Z M 216 330 Q 215 333 219 332 Q 220 329 216 330 Z " /><path fill="rgb(253,143,6)" stroke="rgb(253,143,6)" stroke-width="1" opacity="1" d="M 231.5 328 L 235 329 L 236 333 L 230.5 334 Q 228 332.8 229 329 L 231.5 328 Z M 230 330 L 230 332 L 234 333 Q 236 328 230 330 Z " /><path fill="rgb(253,143,6)" stroke="rgb(253,143,6)" stroke-width="1" opacity="1" d="M 281.5 328 L 287 329 Q 288 332.8 285.5 334 Q 280.1 335.9 281 332.5 L 280 330 L 282 329.5 L 281.5 328 Z M 282 330 L 282 332 L 285 333 Q 287 329 282 330 Z " /><path fill="rgb(253,143,6)" stroke="rgb(253,143,6)" stroke-width="1" opacity="1" d="M 295.5 328 L 299 329 L 298 331.5 Q 300.3 332.8 297.5 334 Q 292.8 334.8 292 331.5 L 293.5 329 L 295.5 328 Z M 296 330 L 294 332 L 297 333 Q 298 329 296 330 Z " /><path fill="rgb(253,143,6)" stroke="rgb(253,143,6)" stroke-width="1" opacity="1" d="M 244.5 329 Q 249 328 250 330.5 Q 251.8 336.6 244.5 334 L 243 330.5 L 244.5 329 Z M 244 330 L 244 333 L 249 333 L 249 330 L 244 330 Z " /><path fill="rgb(253,143,6)" stroke="rgb(253,143,6)" stroke-width="1" opacity="1" d="M 257 329 L 262 329 L 262 332.5 Q 260.8 335 257 334 L 256 331.5 L 257 329 Z M 258 330 L 258 333 L 261 332 Q 262 329 258 330 Z " /><path fill="rgb(253,143,6)" stroke="rgb(253,143,6)" stroke-width="1" opacity="1" d="M 269 329 L 275 329 L 275 332.5 Q 273.6 335.3 269 334 L 269 329 Z M 270 330 Q 269 335 273 333 Q 275 329 270 330 Z " /><path fill="rgb(253,143,6)" stroke="rgb(253,143,6)" stroke-width="1" opacity="1" d="M 306.5 329 Q 310.3 328.3 311 330.5 L 309.5 334 Q 305.8 334.8 305 332.5 L 306.5 329 Z M 308 330 L 306 332 L 309 333 Q 311 329 308 330 Z " /><path fill="rgb(253,143,6)" stroke="rgb(253,143,6)" stroke-width="1" opacity="1" d="M 318 329 Q 322.6 327.8 324 330.5 L 322.5 334 Q 318.8 334.8 318 332.5 L 318 329 Z M 321 330 L 319 332 L 322 333 Q 323 329 321 330 Z " /><path fill="rgb(253,143,6)" stroke="rgb(253,143,6)" stroke-width="1" opacity="1" d="M 332.5 329 L 336 330.5 L 334.5 334 L 331 332.5 L 332.5 329 Z M 332 330 L 332 332 L 335 332 L 332 330 Z " /><path fill="rgb(253,143,6)" stroke="rgb(253,143,6)" stroke-width="1" opacity="1" d="M 344.5 329 L 348 330 L 346.5 334 Q 342.8 334.8 342 332.5 L 344.5 329 Z M 346 330 Q 343 332 346 333 Q 349 332 346 330 Z " /><path fill="rgb(253,143,6)" stroke="rgb(253,143,6)" stroke-width="1" opacity="1" d="M 357.5 329 L 361 330.5 L 359.5 334 Q 355.8 334.8 355 332.5 Q 353.9 329.2 356.5 330 L 357.5 329 Z M 358 330 Q 355 332 358 333 L 360 332 L 358 330 Z " /><path fill="rgb(253,143,6)" stroke="rgb(253,143,6)" stroke-width="1" opacity="1" d="M 369.5 329 Q 373.3 328.3 374 330.5 L 373 334 Q 369.2 335 368 332.5 L 369.5 329 Z M 371 330 L 369 332 L 372 333 Q 374 329 371 330 Z " /><path fill="rgb(253,143,6)" stroke="rgb(253,143,6)" stroke-width="1" opacity="1" d="M 20.5 332 L 22 332.5 L 20 333.5 Q 22.3 334.7 19.5 336 L 19.5 334 L 18 333.5 L 20.5 332 Z " /><path fill="rgb(253,143,6)" stroke="rgb(253,143,6)" stroke-width="1" opacity="1" d="M 20.5 337 Q 41.6 350.9 67.5 360 L 93.5 360 L 94.5 359 L 106.5 359 L 117.5 357 L 143.5 356 L 143.5 357 L 130.5 357 L 129.5 358 L 95.5 360 L 94.5 361 L 67.5 361 Q 47 354 29.5 344 L 21.5 339 L 20.5 337 Z " /><path fill="rgb(253,143,6)" stroke="rgb(253,143,6)" stroke-width="1" opacity="1" d="M 369.5 344 L 382 344.5 L 357.5 346 L 356.5 347 L 311.5 348 L 311.5 347 L 355.5 346 L 356.5 345 L 368.5 345 L 369.5 344 Z " /><path fill="rgb(253,143,6)" stroke="rgb(253,143,6)" stroke-width="1" opacity="1" d="M 251.5 346 L 250.5 348 L 249 348 L 249 353 L 241.5 353 L 241.5 352 L 248 352 L 248 348.5 L 251.5 346 Z " /><path fill="rgb(253,143,6)" stroke="rgb(253,143,6)" stroke-width="1" opacity="1" d="M 253 346 Q 260.5 348.3 273.5 347 L 274.5 348 L 302.5 348 Q 304.2 345.2 309.5 346 L 309.5 347 L 305.5 347 L 303.5 349 L 298.5 350 L 282.5 350 Q 276.4 353.4 265.5 352 L 261 350.5 L 273 350 L 272.5 348 L 257.5 348 L 254.5 347 L 253 347.5 L 253 346 Z " /><path fill="rgb(253,143,6)" stroke="rgb(253,143,6)" stroke-width="1" opacity="1" d="M 253 350 L 257 350.5 L 256.5 352 L 258 352.5 L 253 353 L 253 350 Z " /><path fill="rgb(253,143,6)" stroke="rgb(253,143,6)" stroke-width="1" opacity="1" d="M 220.5 353 L 240 353.5 L 220.5 354 L 220.5 353 Z " /><path fill="rgb(253,143,6)" stroke="rgb(253,143,6)" stroke-width="1" opacity="1" d="M 197.5 354 L 219 354.5 L 197.5 355 L 197.5 354 Z " /><path fill="rgb(253,143,6)" stroke="rgb(253,143,6)" stroke-width="1" opacity="1" d="M 145.5 355 L 191 355.5 L 145.5 356 L 145.5 355 Z " /><path fill="rgb(216,81,22)" stroke="rgb(216,81,22)" stroke-width="1" opacity="1" d="M 458.5 164 L 458 165.5 L 456.5 168 L 453.5 169 L 453.5 168 L 457 167 L 458.5 164 Z " /><path fill="rgb(216,81,22)" stroke="rgb(216,81,22)" stroke-width="1" opacity="1" d="M 451.5 169 L 450.5 171 L 423.5 184 L 411.5 185 L 411.5 184 L 423.5 183 L 451.5 169 Z " /><path fill="rgb(216,81,22)" stroke="rgb(216,81,22)" stroke-width="1" opacity="1" d="M 391.5 182 L 402.5 182 L 410 183.5 L 403.5 184 L 402.5 183 L 391.5 183 L 381.5 189 L 382.5 187 L 391.5 182 Z " /><path fill="rgb(216,81,22)" stroke="rgb(216,81,22)" stroke-width="1" opacity="1" d="M 379.5 189 L 378.5 191 L 376.5 192 L 377.5 190 L 379.5 189 Z " /><path fill="rgb(216,81,22)" stroke="rgb(216,81,22)" stroke-width="1" opacity="1" d="M 374.5 192 L 373.5 194 L 337.5 214 L 338.5 212 L 374.5 192 Z " /><path fill="rgb(216,81,22)" stroke="rgb(216,81,22)" stroke-width="1" opacity="1" d="M 303.5 198 L 302.5 200 L 303.5 198 Z " /><path fill="rgb(216,81,22)" stroke="rgb(216,81,22)" stroke-width="1" opacity="1" d="M 335.5 214 L 334.5 216 L 332.5 217 L 333.5 215 L 335.5 214 Z " /><path fill="rgb(216,81,22)" stroke="rgb(216,81,22)" stroke-width="1" opacity="1" d="M 328.5 218 L 327.5 220 L 294.5 238 L 295.5 236 L 328.5 218 Z " /><path fill="rgb(216,81,22)" stroke="rgb(216,81,22)" stroke-width="1" opacity="1" d="M 290.5 239 L 289.5 241 L 239.5 269 L 240.5 267 L 290.5 239 Z " /><path fill="rgb(216,81,22)" stroke="rgb(216,81,22)" stroke-width="1" opacity="1" d="M 237.5 269 L 236.5 271 L 207.5 287 L 208.5 285 L 237.5 269 Z " /><path fill="rgb(216,81,22)" stroke="rgb(216,81,22)" stroke-width="1" opacity="1" d="M 138 285 L 140 285.5 L 138 286.5 L 138 285 Z " /><path fill="rgb(216,81,22)" stroke="rgb(216,81,22)" stroke-width="1" opacity="1" d="M 169 285 L 171 285.5 L 169 286.5 L 169 285 Z " /><path fill="rgb(216,81,22)" stroke="rgb(216,81,22)" stroke-width="1" opacity="1" d="M 123.5 287 L 122.5 289 L 121 288.5 L 123.5 287 Z " /><path fill="rgb(216,81,22)" stroke="rgb(216,81,22)" stroke-width="1" opacity="1" d="M 119.5 289 L 118.5 291 L 117 290.5 L 119.5 289 Z " /><path fill="rgb(216,81,22)" stroke="rgb(216,81,22)" stroke-width="1" opacity="1" d="M 201.5 289 L 200.5 291 L 185.5 301 L 182 301.5 L 185.5 303 L 187.5 302 L 188.5 303 L 196.5 303 L 205.5 306 L 207.5 305 L 208.5 306 L 243.5 306 L 244.5 305 L 274.5 304 L 275.5 305 L 303.5 305 L 304.5 304 L 313.5 304 L 316.5 305 L 317.5 304 L 325.5 304 Q 327 306.5 332.5 305 L 335.5 304 L 359.5 304 L 362.5 305 L 364.5 304 L 369 305 L 370.5 308 Q 377.3 306.3 379 309.5 Q 378.3 311.8 374.5 311 L 369.5 310 L 365.5 312 L 228.5 312 L 223.5 311 L 218 313 L 218 310 Q 221 311 220 308 Q 214.8 307 212.5 310 L 201 311 Q 202.3 307.7 197.5 309 L 195.5 308 L 187.5 310 L 175.5 310 Q 174 307.5 172.5 311 Q 165.1 312.4 162.5 309 Q 160.5 312 154.5 311 Q 153 308.5 147.5 310 L 142.5 311 L 140 308.5 L 139 303 Q 132.4 301.3 130.5 305 L 118.5 305 L 115.5 303 L 94 303 Q 95 306 92 305 L 93.5 302 L 117.5 302 L 119.5 304 L 130.5 304 L 132 301 L 128 300.5 L 132.5 300 L 133.5 301 L 171.5 301 L 175 304.5 L 174.5 306 L 186.5 306 L 187 304 L 181 304 L 181 301.5 L 201.5 289 Z M 140 302 Q 139 305 142 304 Q 143 301 140 302 Z M 147 302 L 144 304 L 145 306 Q 149 307 152 304 Q 155 303 154 306 Q 160 308 158 303 L 156 302 L 154 303 L 147 302 Z M 168 302 L 165 303 L 163 303 Q 159 302 160 305 L 165 306 L 170 304 L 172 307 L 173 305 Q 172 301 168 302 Z M 191 304 L 191 307 Q 196 308 198 306 Q 196 303 191 304 Z M 143 305 L 141 307 L 144 308 L 143 305 Z M 150 306 L 148 308 L 154 308 Q 155 304 150 306 Z M 160 306 L 159 308 L 163 308 L 160 306 Z M 317 306 L 317 307 L 324 307 L 317 306 Z M 365 306 L 365 309 L 368 310 Q 370 304 365 306 Z M 208 307 L 208 308 L 213 308 L 208 307 Z M 172 308 L 169 310 L 172 310 L 172 308 Z M 254 308 L 253 310 L 271 310 L 272 309 L 254 308 Z M 308 308 L 308 309 L 341 311 L 341 308 L 308 308 Z M 342 308 Q 341 311 344 310 L 346 310 L 354 310 L 355 311 L 359 311 L 358 309 L 348 309 L 342 308 Z M 155 309 L 155 310 L 159 310 L 155 309 Z M 234 309 L 234 310 L 241 310 L 234 309 Z M 275 309 L 275 310 L 282 310 L 275 309 Z " /><path fill="rgb(216,81,22)" stroke="rgb(216,81,22)" stroke-width="1" opacity="1" d="M 129 290 Q 132 289 131 292 Q 128 293 129 290 Z " /><path fill="rgb(216,81,22)" stroke="rgb(216,81,22)" stroke-width="1" opacity="1" d="M 110.5 293 L 112 299 L 114 299.5 L 111 300 L 111 296 Q 106.9 297.3 108 294 L 110.5 293 Z " /><path fill="rgb(216,81,22)" stroke="rgb(216,81,22)" stroke-width="1" opacity="1" d="M 410.5 299 L 413.5 303 L 410.5 299 Z " /><path fill="rgb(216,81,22)" stroke="rgb(216,81,22)" stroke-width="1" opacity="1" d="M 115.5 300 L 125 300.5 L 115.5 301 L 115.5 300 Z " /><path fill="rgb(216,81,22)" stroke="rgb(216,81,22)" stroke-width="1" opacity="1" d="M 363.5 300 L 370 300.5 L 363.5 301 L 363.5 300 Z " /><path fill="rgb(216,81,22)" stroke="rgb(216,81,22)" stroke-width="1" opacity="1" d="M 328.5 301 L 340 301.5 L 328.5 302 L 328.5 301 Z " /><path fill="rgb(216,81,22)" stroke="rgb(216,81,22)" stroke-width="1" opacity="1" d="M 398 301 L 401 301.5 L 398 303 L 398 301 Z " /><path fill="rgb(216,81,22)" stroke="rgb(216,81,22)" stroke-width="1" opacity="1" d="M 305.5 302 L 312 302.5 L 305.5 303 L 305.5 302 Z " /><path fill="rgb(216,81,22)" stroke="rgb(216,81,22)" stroke-width="1" opacity="1" d="M 277.5 303 L 286 303.5 L 277.5 304 L 277.5 303 Z " /><path fill="rgb(216,81,22)" stroke="rgb(216,81,22)" stroke-width="1" opacity="1" d="M 95.5 306 L 100.5 306 L 104.5 308 L 106.5 307 L 108 309.5 L 104.5 311 Q 103 308.5 97.5 310 L 96 308.5 L 95.5 306 Z M 97 307 Q 96 311 101 309 Q 102 305 97 307 Z " /><path fill="rgb(216,81,22)" stroke="rgb(216,81,22)" stroke-width="1" opacity="1" d="M 419.5 307 L 420.5 309 L 419.5 307 Z " /><path fill="rgb(216,81,22)" stroke="rgb(216,81,22)" stroke-width="1" opacity="1" d="M 116.5 309 L 119 309.5 Q 116.9 312.8 116.5 309 Z " /><path fill="rgb(216,81,22)" stroke="rgb(216,81,22)" stroke-width="1" opacity="1" d="M 129.5 309 L 133 309.5 L 129.5 310 L 129.5 309 Z " /><path fill="rgb(216,81,22)" stroke="rgb(216,81,22)" stroke-width="1" opacity="1" d="M 425.5 311 L 428 311.5 L 425.5 312 L 425.5 311 Z " /><path fill="rgb(216,81,22)" stroke="rgb(216,81,22)" stroke-width="1" opacity="1" d="M 168 314 Q 171 313 170 316 Q 167 317 168 314 Z " /><path fill="rgb(216,81,22)" stroke="rgb(216,81,22)" stroke-width="1" opacity="1" d="M 127.5 315 L 128.5 317 Q 125.7 317.7 127.5 315 Z " /><path fill="rgb(216,81,22)" stroke="rgb(216,81,22)" stroke-width="1" opacity="1" d="M 138 315 Q 141 314 140 317 Q 137 318 138 315 Z " /><path fill="rgb(216,81,22)" stroke="rgb(216,81,22)" stroke-width="1" opacity="1" d="M 150.5 315 L 151.5 317 Q 148.7 317.7 150.5 315 Z " /><path fill="rgb(216,81,22)" stroke="rgb(216,81,22)" stroke-width="1" opacity="1" d="M 439.5 319 L 440 321.5 L 439 321.5 L 439.5 319 Z " /><path fill="rgb(216,81,22)" stroke="rgb(216,81,22)" stroke-width="1" opacity="1" d="M 162 321 L 164 321.5 L 162 322.5 L 162 321 Z " /><path fill="rgb(216,81,22)" stroke="rgb(216,81,22)" stroke-width="1" opacity="1" d="M 179.5 321 L 182 321.5 Q 179.9 324.8 179.5 321 Z " /><path fill="rgb(216,81,22)" stroke="rgb(216,81,22)" stroke-width="1" opacity="1" d="M 117 322 Q 120 321 119 324 Q 116 325 117 322 Z " /><path fill="rgb(216,81,22)" stroke="rgb(216,81,22)" stroke-width="1" opacity="1" d="M 130.5 322 L 131.5 324 Q 128.7 324.7 130.5 322 Z " /><path fill="rgb(216,81,22)" stroke="rgb(216,81,22)" stroke-width="1" opacity="1" d="M 144.5 322 Q 146.8 321.3 146 323.5 L 144.5 322 Z " /><path fill="rgb(216,81,22)" stroke="rgb(216,81,22)" stroke-width="1" opacity="1" d="M 438.5 323 L 439 324.5 L 435 331.5 L 423.5 344 L 421.5 345 L 422.5 343 L 425 341.5 Q 433.8 334.3 438.5 323 Z " /><path fill="rgb(216,81,22)" stroke="rgb(216,81,22)" stroke-width="1" opacity="1" d="M 59 329 Q 62 328 61 331 Q 58 332 59 329 Z " /><path fill="rgb(216,81,22)" stroke="rgb(216,81,22)" stroke-width="1" opacity="1" d="M 71.5 329 L 72.5 331 Q 69.7 331.7 71.5 329 Z " /><path fill="rgb(216,81,22)" stroke="rgb(216,81,22)" stroke-width="1" opacity="1" d="M 83 329 Q 86 328 85 331 Q 82 332 83 329 Z " /><path fill="rgb(216,81,22)" stroke="rgb(216,81,22)" stroke-width="1" opacity="1" d="M 96.5 329 L 97 331 L 95 330.5 L 96.5 329 Z " /><path fill="rgb(216,81,22)" stroke="rgb(216,81,22)" stroke-width="1" opacity="1" d="M 108.5 329 L 109 331 L 107 330.5 L 108.5 329 Z " /><path fill="rgb(216,81,22)" stroke="rgb(216,81,22)" stroke-width="1" opacity="1" d="M 118 329 Q 122.1 327.7 121 331 Q 116.9 332.3 118 329 Z " /><path fill="rgb(216,81,22)" stroke="rgb(216,81,22)" stroke-width="1" opacity="1" d="M 143.5 329 L 144.5 331 Q 141.7 331.7 143.5 329 Z " /><path fill="rgb(216,81,22)" stroke="rgb(216,81,22)" stroke-width="1" opacity="1" d="M 155 329 Q 158 328 157 331 Q 154 332 155 329 Z " /><path fill="rgb(216,81,22)" stroke="rgb(216,81,22)" stroke-width="1" opacity="1" d="M 216 330 Q 220.1 328.7 219 332 Q 214.9 333.3 216 330 Z " /><path fill="rgb(216,81,22)" stroke="rgb(216,81,22)" stroke-width="1" opacity="1" d="M 230 330 Q 235.6 328.1 234 333 L 230 331.5 L 230 330 Z " /><path fill="rgb(216,81,22)" stroke="rgb(216,81,22)" stroke-width="1" opacity="1" d="M 244 330 L 249 330 L 249 333 L 244 333 L 244 330 Z " /><path fill="rgb(216,81,22)" stroke="rgb(216,81,22)" stroke-width="1" opacity="1" d="M 258 330 Q 261.7 328.5 261 331.5 L 258 333 L 258 330 Z " /><path fill="rgb(216,81,22)" stroke="rgb(216,81,22)" stroke-width="1" opacity="1" d="M 270 330 Q 274.5 328.5 273 333 Q 268.5 334.5 270 330 Z " /><path fill="rgb(216,81,22)" stroke="rgb(216,81,22)" stroke-width="1" opacity="1" d="M 282 330 Q 286.5 328.5 285 333 L 282 331.5 L 282 330 Z " /><path fill="rgb(216,81,22)" stroke="rgb(216,81,22)" stroke-width="1" opacity="1" d="M 295.5 330 Q 298.5 329.2 297 333 L 294 331.5 L 295.5 330 Z " /><path fill="rgb(216,81,22)" stroke="rgb(216,81,22)" stroke-width="1" opacity="1" d="M 307.5 330 Q 310.5 329.2 309 333 L 306 331.5 L 307.5 330 Z " /><path fill="rgb(216,81,22)" stroke="rgb(216,81,22)" stroke-width="1" opacity="1" d="M 320.5 330 Q 323.5 329.2 322 333 L 319 331.5 L 320.5 330 Z " /><path fill="rgb(216,81,22)" stroke="rgb(216,81,22)" stroke-width="1" opacity="1" d="M 332 330 L 335 331.5 L 332 332 L 332 330 Z " /><path fill="rgb(216,81,22)" stroke="rgb(216,81,22)" stroke-width="1" opacity="1" d="M 345.5 330 Q 348.5 331.5 345.5 333 Q 342.5 331.5 345.5 330 Z " /><path fill="rgb(216,81,22)" stroke="rgb(216,81,22)" stroke-width="1" opacity="1" d="M 357.5 330 L 360 331.5 L 357.5 333 Q 354.5 331.5 357.5 330 Z " /><path fill="rgb(216,81,22)" stroke="rgb(216,81,22)" stroke-width="1" opacity="1" d="M 370.5 330 Q 373.5 329.2 372 333 L 369 331.5 L 370.5 330 Z " /><path fill="rgb(216,81,22)" stroke="rgb(216,81,22)" stroke-width="1" opacity="1" d="M 22.5 339 L 23.5 341 L 22.5 339 Z " /><path fill="rgb(216,81,22)" stroke="rgb(216,81,22)" stroke-width="1" opacity="1" d="M 25.5 341 L 29 343.5 L 27.5 343 L 25.5 341 Z " /><path fill="rgb(216,81,22)" stroke="rgb(216,81,22)" stroke-width="1" opacity="1" d="M 30.5 344 L 47 352.5 L 45.5 353 L 31.5 346 L 30.5 344 Z " /><path fill="rgb(216,81,22)" stroke="rgb(216,81,22)" stroke-width="1" opacity="1" d="M 382.5 344 L 415 344.5 L 382.5 345 L 382.5 344 Z " /><path fill="rgb(216,81,22)" stroke="rgb(216,81,22)" stroke-width="1" opacity="1" d="M 369.5 345 L 379 345.5 L 369.5 346 L 369.5 345 Z " /><path fill="rgb(216,81,22)" stroke="rgb(216,81,22)" stroke-width="1" opacity="1" d="M 357.5 346 L 366 346.5 L 357.5 347 L 357.5 346 Z " /><path fill="rgb(216,81,22)" stroke="rgb(216,81,22)" stroke-width="1" opacity="1" d="M 251.5 347 L 253.5 348 L 256.5 347 L 257.5 348 L 273 348 L 272.5 350 L 253.5 350 L 253 353 L 256 353.5 L 240.5 354 L 240.5 353 L 249 353 L 249 348 L 250.5 348 L 251.5 347 Z M 250 349 Q 249 353 252 352 Q 253 348 250 349 Z " /><path fill="rgb(216,81,22)" stroke="rgb(216,81,22)" stroke-width="1" opacity="1" d="M 305.5 347 L 329 348.5 L 310.5 349 L 308.5 351 L 277.5 352 L 277.5 351 L 282.5 350 L 298.5 350 L 303.5 349 L 305.5 347 Z " /><path fill="rgb(216,81,22)" stroke="rgb(216,81,22)" stroke-width="1" opacity="1" d="M 334.5 347 L 353 347.5 L 334.5 348 L 334.5 347 Z " /><path fill="rgb(216,81,22)" stroke="rgb(216,81,22)" stroke-width="1" opacity="1" d="M 258.5 352 L 274 352.5 L 258.5 353 L 258.5 352 Z " /><path fill="rgb(216,81,22)" stroke="rgb(216,81,22)" stroke-width="1" opacity="1" d="M 50.5 354 L 58 357.5 L 56.5 358 L 50.5 355 L 50.5 354 Z " /><path fill="rgb(216,81,22)" stroke="rgb(216,81,22)" stroke-width="1" opacity="1" d="M 219.5 354 L 236 354.5 L 219.5 355 L 219.5 354 Z " /><path fill="rgb(216,81,22)" stroke="rgb(216,81,22)" stroke-width="1" opacity="1" d="M 191.5 355 L 216 355.5 L 191.5 356 L 191.5 355 Z " /><path fill="rgb(216,81,22)" stroke="rgb(216,81,22)" stroke-width="1" opacity="1" d="M 144.5 356 L 174 356.5 L 144.5 357 L 144.5 356 Z " /><path fill="rgb(216,81,22)" stroke="rgb(216,81,22)" stroke-width="1" opacity="1" d="M 130.5 357 L 141 357.5 L 130.5 358 L 130.5 357 Z " /><path fill="rgb(216,81,22)" stroke="rgb(216,81,22)" stroke-width="1" opacity="1" d="M 119.5 358 L 127 358.5 L 119.5 359 L 119.5 358 Z " /><path fill="rgb(216,81,22)" stroke="rgb(216,81,22)" stroke-width="1" opacity="1" d="M 62.5 359 L 67 360.5 L 64.5 361 L 62.5 359 Z " /><path fill="rgb(216,81,22)" stroke="rgb(216,81,22)" stroke-width="1" opacity="1" d="M 108.5 359 L 117 359.5 L 108.5 360 L 108.5 359 Z " /><path fill="rgb(216,81,22)" stroke="rgb(216,81,22)" stroke-width="1" opacity="1" d="M 95.5 360 L 107 360.5 L 95.5 361 L 95.5 360 Z " /><path fill="rgb(216,81,22)" stroke="rgb(216,81,22)" stroke-width="1" opacity="1" d="M 69.5 361 L 92 361.5 L 69.5 362 L 69.5 361 Z " /><path fill="rgb(178,46,16)" stroke="rgb(178,46,16)" stroke-width="1" opacity="1" d="M 430.5 142 L 431.5 144 L 430.5 142 Z " /><path fill="rgb(178,46,16)" stroke="rgb(178,46,16)" stroke-width="1" opacity="1" d="M 406.5 145 L 409 145.5 L 406.5 146 L 406.5 145 Z " /><path fill="rgb(178,46,16)" stroke="rgb(178,46,16)" stroke-width="1" opacity="1" d="M 435.5 145 L 436.5 147 L 435.5 145 Z " /><path fill="rgb(178,46,16)" stroke="rgb(178,46,16)" stroke-width="1" opacity="1" d="M 399.5 147 L 402 147.5 L 399.5 148 L 399.5 147 Z " /><path fill="rgb(178,46,16)" stroke="rgb(178,46,16)" stroke-width="1" opacity="1" d="M 395.5 148 L 398 148.5 L 395.5 149 L 395.5 148 Z " /><path fill="rgb(178,46,16)" stroke="rgb(178,46,16)" stroke-width="1" opacity="1" d="M 442.5 149 L 443.5 151 L 442.5 149 Z " /><path fill="rgb(178,46,16)" stroke="rgb(178,46,16)" stroke-width="1" opacity="1" d="M 390.5 150 L 389.5 152 L 390.5 150 Z " /><path fill="rgb(178,46,16)" stroke="rgb(178,46,16)" stroke-width="1" opacity="1" d="M 447.5 152 L 451 154.5 L 449.5 154 L 447.5 152 Z " /><path fill="rgb(178,46,16)" stroke="rgb(178,46,16)" stroke-width="1" opacity="1" d="M 382.5 155 L 381.5 157 L 382.5 155 Z " /><path fill="rgb(178,46,16)" stroke="rgb(178,46,16)" stroke-width="1" opacity="1" d="M 462.5 161 L 463.5 163 L 462.5 161 Z " /><path fill="rgb(178,46,16)" stroke="rgb(178,46,16)" stroke-width="1" opacity="1" d="M 458.5 166 L 462 170.5 L 450.5 177 L 424.5 188 L 415.5 186 L 395.5 186 L 219.5 286 L 204.5 293 L 195 299.5 Q 194.3 301.8 196.5 301 L 201.5 304 L 211.5 304 L 212.5 305 L 243.5 305 L 244.5 304 L 259.5 304 L 259.5 305 L 208.5 306 L 206.5 305 L 204.5 305 L 186.5 302 L 184.5 303 L 182 301.5 L 185.5 301 L 202.5 289 L 213.5 284 L 391.5 183 L 402.5 183 L 411.5 185 L 420.5 185 L 458.5 166 Z " /><path fill="rgb(178,46,16)" stroke="rgb(178,46,16)" stroke-width="1" opacity="1" d="M 355.5 170 L 354.5 172 L 352.5 173 L 353.5 171 L 355.5 170 Z " /><path fill="rgb(178,46,16)" stroke="rgb(178,46,16)" stroke-width="1" opacity="1" d="M 342.5 177 L 341.5 179 L 337.5 181 L 338.5 179 L 342.5 177 Z " /><path fill="rgb(178,46,16)" stroke="rgb(178,46,16)" stroke-width="1" opacity="1" d="M 295.5 202 L 294.5 204 L 292.5 205 L 293.5 203 L 295.5 202 Z " /><path fill="rgb(178,46,16)" stroke="rgb(178,46,16)" stroke-width="1" opacity="1" d="M 280.5 210 L 279.5 212 L 280.5 210 Z " /><path fill="rgb(178,46,16)" stroke="rgb(178,46,16)" stroke-width="1" opacity="1" d="M 252.5 224 L 254 224.5 L 250.5 226 L 250.5 225 L 252.5 224 Z " /><path fill="rgb(178,46,16)" stroke="rgb(178,46,16)" stroke-width="1" opacity="1" d="M 248.5 226 L 247.5 228 L 246 227.5 L 248.5 226 Z " /><path fill="rgb(178,46,16)" stroke="rgb(178,46,16)" stroke-width="1" opacity="1" d="M 179.5 259 L 181 259.5 L 171.5 264 L 171.5 263 L 179.5 259 Z " /><path fill="rgb(178,46,16)" stroke="rgb(178,46,16)" stroke-width="1" opacity="1" d="M 107.5 294 L 108 296 Q 112.9 294.4 111 300 L 114.5 300 L 115.5 301 L 124.5 301 L 127.5 300 L 132 301 L 130.5 304 L 119.5 304 L 117.5 302 L 93.5 302 L 91.5 305 L 91 303.5 L 107.5 294 Z " /><path fill="rgb(178,46,16)" stroke="rgb(178,46,16)" stroke-width="1" opacity="1" d="M 407.5 295 L 410.5 299 L 407.5 295 Z " /><path fill="rgb(178,46,16)" stroke="rgb(178,46,16)" stroke-width="1" opacity="1" d="M 381.5 299 L 384 299.5 L 381.5 300 L 381.5 299 Z " /><path fill="rgb(178,46,16)" stroke="rgb(178,46,16)" stroke-width="1" opacity="1" d="M 351.5 300 L 360 300.5 L 351.5 301 L 351.5 300 Z " /><path fill="rgb(178,46,16)" stroke="rgb(178,46,16)" stroke-width="1" opacity="1" d="M 321.5 301 L 328 301.5 L 321.5 302 L 321.5 301 Z " /><path fill="rgb(178,46,16)" stroke="rgb(178,46,16)" stroke-width="1" opacity="1" d="M 140 302 Q 143 301 142 304 Q 139 305 140 302 Z " /><path fill="rgb(178,46,16)" stroke="rgb(178,46,16)" stroke-width="1" opacity="1" d="M 146.5 302 L 153.5 303 L 155.5 302 L 158 303 Q 159.6 307.9 154 306 Q 155.3 303 151.5 304 Q 149.5 306.8 145 306 L 144 303.5 L 146.5 302 Z " /><path fill="rgb(178,46,16)" stroke="rgb(178,46,16)" stroke-width="1" opacity="1" d="M 167.5 302 Q 172.3 301.3 173 304.5 L 171.5 307 L 170 304 L 164.5 306 L 160 305 Q 158.8 302 162.5 303 L 164.5 303 L 167.5 302 Z " /><path fill="rgb(178,46,16)" stroke="rgb(178,46,16)" stroke-width="1" opacity="1" d="M 291.5 302 L 305 302.5 L 291.5 303 L 291.5 302 Z " /><path fill="rgb(178,46,16)" stroke="rgb(178,46,16)" stroke-width="1" opacity="1" d="M 414.5 302 L 418.5 307 L 414.5 302 Z " /><path fill="rgb(178,46,16)" stroke="rgb(178,46,16)" stroke-width="1" opacity="1" d="M 264.5 303 L 277 303.5 L 264.5 304 L 264.5 303 Z " /><path fill="rgb(178,46,16)" stroke="rgb(178,46,16)" stroke-width="1" opacity="1" d="M 316.5 306 L 324 306.5 L 316.5 307 L 316.5 306 Z " /><path fill="rgb(178,46,16)" stroke="rgb(178,46,16)" stroke-width="1" opacity="1" d="M 364.5 306 Q 370.2 304.4 368 310 L 365 308.5 L 364.5 306 Z " /><path fill="rgb(178,46,16)" stroke="rgb(178,46,16)" stroke-width="1" opacity="1" d="M 97 307 Q 102.2 305.3 101 309 Q 95.8 310.7 97 307 Z " /><path fill="rgb(178,46,16)" stroke="rgb(178,46,16)" stroke-width="1" opacity="1" d="M 207.5 307 L 213 307.5 L 207.5 308 L 207.5 307 Z " /><path fill="rgb(178,46,16)" stroke="rgb(178,46,16)" stroke-width="1" opacity="1" d="M 171.5 308 L 172 310 L 169 309.5 L 171.5 308 Z " /><path fill="rgb(178,46,16)" stroke="rgb(178,46,16)" stroke-width="1" opacity="1" d="M 253.5 308 L 272 308.5 L 270.5 310 L 252.5 310 L 253.5 308 Z " /><path fill="rgb(178,46,16)" stroke="rgb(178,46,16)" stroke-width="1" opacity="1" d="M 307.5 308 L 340.5 308 L 341 311 L 307.5 309 L 307.5 308 Z " /><path fill="rgb(178,46,16)" stroke="rgb(178,46,16)" stroke-width="1" opacity="1" d="M 342 308 L 347.5 309 L 357.5 309 L 359 310.5 L 354.5 311 L 353.5 310 L 345.5 310 L 343.5 310 Q 340.9 310.7 342 308 Z " /><path fill="rgb(178,46,16)" stroke="rgb(178,46,16)" stroke-width="1" opacity="1" d="M 154.5 309 L 159 309.5 L 154.5 310 L 154.5 309 Z " /><path fill="rgb(178,46,16)" stroke="rgb(178,46,16)" stroke-width="1" opacity="1" d="M 233.5 309 L 241 309.5 L 233.5 310 L 233.5 309 Z " /><path fill="rgb(178,46,16)" stroke="rgb(178,46,16)" stroke-width="1" opacity="1" d="M 274.5 309 L 282 309.5 L 274.5 310 L 274.5 309 Z " /><path fill="rgb(178,46,16)" stroke="rgb(178,46,16)" stroke-width="1" opacity="1" d="M 422.5 309 L 425 310.5 L 423.5 311 L 422.5 309 Z " /><path fill="rgb(178,46,16)" stroke="rgb(178,46,16)" stroke-width="1" opacity="1" d="M 75.5 310 L 77 310.5 L 73.5 312 L 73.5 311 L 75.5 310 Z " /><path fill="rgb(178,46,16)" stroke="rgb(178,46,16)" stroke-width="1" opacity="1" d="M 434.5 313 L 435.5 315 L 434.5 313 Z " /><path fill="rgb(178,46,16)" stroke="rgb(178,46,16)" stroke-width="1" opacity="1" d="M 437.5 316 L 439.5 319 L 437.5 316 Z " /><path fill="rgb(178,46,16)" stroke="rgb(178,46,16)" stroke-width="1" opacity="1" d="M 440.5 320 Q 444.3 321.3 443 327.5 L 428 347 L 425.5 348 L 411.5 348 L 410.5 349 L 389.5 349 L 388.5 350 L 369.5 350 L 368.5 351 L 351.5 351 L 350.5 352 L 263.5 355 L 262.5 356 L 250.5 356 L 249.5 357 L 237.5 357 L 236.5 358 L 224.5 358 L 223.5 359 L 152.5 359 L 151.5 360 L 141.5 360 L 140.5 361 L 130.5 361 L 129.5 362 L 82.5 366 L 81.5 365 L 67.5 364 L 34.5 350 L 21 341.5 L 20 338.5 L 23.5 341 Q 42.3 352.7 64.5 361 L 69.5 362 L 91.5 362 L 92.5 361 L 106.5 361 L 107.5 360 L 116.5 360 L 127.5 358 L 140.5 358 L 141.5 357 L 215.5 356 L 216.5 355 L 273.5 353 L 274.5 352 L 287.5 352 L 288.5 351 L 308.5 351 L 310.5 349 L 352.5 348 L 353.5 347 L 365.5 347 L 366.5 346 L 378.5 346 L 379.5 345 L 417.5 345 L 419.5 346 L 428 339.5 Q 436.8 332.3 440.5 320 Z " /><path fill="rgb(178,46,16)" stroke="rgb(178,46,16)" stroke-width="1" opacity="1" d="M 17 332 L 19 332.5 L 17 333.5 L 17 332 Z " /><path fill="rgb(178,46,16)" stroke="rgb(178,46,16)" stroke-width="1" opacity="1" d="M 250 349 Q 253.3 347.9 252 352 Q 248.7 353.1 250 349 Z " /><path fill="rgb(255,156,0)" stroke="rgb(255,156,0)" stroke-width="1" opacity="1" d="M 426.5 141 L 461 161.5 L 452.5 168 L 430.5 179 L 420.5 183 L 411.5 183 L 403.5 181 L 391.5 181 L 331.5 216 L 318.5 222 L 286.5 241 L 280.5 243 L 261.5 255 L 203 287 L 201.5 283 Q 199.3 282.3 200 284.5 L 199 287 Q 202 286 201 289 L 182.5 298 L 180 300.5 Q 181.1 303.8 178.5 303 L 176.5 303 Q 172 303.5 171.5 300 L 150.5 300 Q 149 297.5 143.5 299 Q 142.2 301.2 137.5 300 L 135.5 299 L 133.5 299 L 128.5 298 L 124.5 299 L 122.5 299 L 114.5 299 L 113 297.5 L 112 294.5 L 127 288 Q 125.9 285.3 128.5 286 L 140.5 279 L 278.5 213 L 372.5 163 L 392.5 150 L 407.5 147 L 426.5 141 Z M 138 283 L 136 285 L 138 288 Q 143 290 141 285 L 138 283 Z M 147 283 L 147 285 L 147 287 L 147 288 L 151 288 Q 153 281 147 283 Z M 160 283 L 159 284 Q 156 283 157 287 L 161 288 L 162 285 L 160 283 Z M 170 283 L 167 286 L 169 288 Q 174 290 172 285 L 170 283 Z M 180 283 L 178 285 L 180 288 Q 184 290 183 286 L 180 283 Z M 190 283 L 188 285 L 190 287 Q 194 289 193 285 L 190 283 Z M 128 288 L 127 293 Q 128 295 132 294 L 132 289 L 131 289 L 128 288 Z " /><path fill="rgb(255,156,0)" stroke="rgb(255,156,0)" stroke-width="1" opacity="1" d="M 397.5 294 L 406.5 296 L 422.5 311 L 432.5 313 L 438 318.5 L 437 325.5 L 432 333 Q 429.3 331.9 430 334.5 L 420.5 344 L 415.5 344 L 414.5 343 L 383.5 343 L 382.5 344 L 369.5 344 L 368.5 345 L 356.5 345 L 355.5 346 L 310.5 347 L 305.5 346 L 302.5 348 L 274.5 348 L 273.5 347 Q 261.4 348.6 253.5 346 L 250.5 347 L 248 348.5 L 248 352 L 241.5 352 L 240.5 353 L 197.5 354 L 196.5 355 L 145.5 355 L 144.5 356 L 117.5 357 L 116.5 358 L 94.5 359 L 93.5 360 L 67.5 360 Q 41.2 350.8 20 336.5 L 19 334.5 L 22.5 332 L 49.5 323 L 56.5 319 L 91.5 306 L 97.5 311 L 108.5 312 L 110 308.5 L 108.5 307 L 103.5 307 L 98 304.5 L 111.5 304 L 113.5 303 L 116 304 L 116.5 306 L 131.5 306 Q 132.9 302.8 138 304 Q 136.8 309.5 140.5 311 L 146.5 312 L 148.5 312 L 152.5 311 L 156 312 Q 154.3 316.1 158.5 315 L 158.5 313 Q 160 315.5 161.5 312 Q 167.6 310.8 167 313.5 L 164 317.5 L 167 319.5 L 167 317 L 172 317 L 172 312 L 173.5 312 L 175 312.5 Q 174.2 309.5 178 311 L 179 317 L 176.5 316 L 174 317 Q 172.9 319.7 175.5 319 Q 176.8 316.8 178 319.5 L 177 324 L 183 324 L 183 320.5 L 179 318.5 L 181.5 318 L 183 318.5 L 183.5 311 L 185.5 311 L 189.5 312 L 190.5 311 L 200.5 311 L 205.5 312 Q 207 309.5 212.5 311 L 214.5 311 Q 216.8 310.3 216 312.5 Q 217 315 221.5 314 Q 222.9 311.4 227.5 312 L 228.5 313 L 364.5 313 L 373.5 311 L 378.5 312 L 382 309.5 Q 379.5 305.5 371.5 307 L 368.5 304 L 298 303.5 L 325.5 303 L 326.5 302 L 355.5 302 L 356.5 301 L 382.5 301 L 397.5 294 Z M 397 300 L 397 303 Q 398 305 402 304 Q 404 298 397 300 Z M 118 307 L 115 308 L 117 312 Q 122 314 120 309 L 118 307 Z M 405 307 L 403 311 L 407 312 L 407 307 L 405 307 Z M 127 308 L 129 312 L 134 311 L 134 308 L 127 308 Z M 154 313 L 148 314 L 150 318 Q 154 319 155 316 L 154 313 Z M 125 314 Q 124 318 127 319 L 130 318 L 130 314 L 125 314 Z M 138 314 L 136 318 L 140 319 L 141 316 L 138 314 Z M 172 318 L 172 322 L 172 321 Q 174 319 172 318 Z M 209 318 L 207 320 Q 205 325 210 324 Q 212 323 211 320 L 209 318 Z M 165 319 L 162 320 L 160 324 L 164 325 L 165 324 L 165 319 Z M 195 319 L 191 322 L 192 324 L 196 325 L 197 323 L 197 321 L 195 319 Z M 118 320 L 115 325 L 118 327 L 117 329 Q 116 332 119 333 Q 123 334 123 331 L 121 328 Q 122 325 120 326 L 120 325 L 121 325 L 121 321 L 118 320 Z M 143 320 L 142 324 Q 143 326 147 325 L 148 322 Q 147 319 143 320 Z M 129 321 L 128 325 L 131 326 L 133 325 Q 135 319 129 321 Z M 58 327 L 58 332 Q 62 333 63 331 L 62 329 L 62 327 L 58 327 Z M 71 327 Q 68 328 69 332 L 74 332 L 74 329 L 71 327 Z M 82 327 L 81 330 Q 80 333 84 332 L 86 332 Q 88 333 87 329 Q 86 326 82 327 Z M 97 327 L 95 328 L 93 332 L 96 333 L 98 332 Q 101 333 99 329 L 97 327 Z M 110 327 L 109 328 Q 105 327 106 330 Q 103 331 108 333 L 111 332 Q 112 328 110 327 Z M 191 327 L 188 330 Q 187 334 191 334 L 193 333 Q 194 328 191 327 Z M 131 328 L 129 332 L 132 333 L 133 330 L 131 328 Z M 142 328 L 141 331 Q 142 334 146 333 Q 148 326 142 328 Z M 155 328 L 153 332 Q 154 334 158 333 L 158 328 L 155 328 Z M 165 328 L 165 332 L 169 333 L 170 330 Q 169 327 165 328 Z M 179 328 L 177 332 L 181 333 L 182 330 L 179 328 Z M 205 328 L 203 330 Q 201 335 207 333 L 208 330 L 205 328 Z M 219 328 L 218 329 Q 213 328 215 333 L 218 334 L 221 332 L 219 328 Z M 232 328 L 229 329 Q 228 333 231 334 L 236 333 L 235 329 L 232 328 Z M 296 328 L 294 329 L 292 332 Q 293 335 298 334 Q 300 333 298 332 L 299 329 L 296 328 Z M 245 329 L 243 331 L 245 334 Q 252 337 250 331 Q 249 328 245 329 Z M 257 329 L 256 332 L 257 334 Q 261 335 262 333 L 262 329 L 257 329 Z M 269 329 L 269 334 Q 274 335 275 333 L 275 329 L 269 329 Z M 283 329 L 280 330 L 281 334 Q 286 335 287 333 Q 289 327 283 329 Z M 307 329 L 305 333 Q 306 335 310 334 L 311 331 Q 310 328 307 329 Z M 318 329 L 318 333 Q 319 335 323 334 L 324 331 Q 323 328 318 329 Z M 333 329 L 331 333 L 335 334 L 336 331 L 333 329 Z M 345 329 L 342 333 Q 343 335 347 334 L 348 330 L 345 329 Z M 358 329 L 357 330 Q 354 329 355 333 Q 356 335 360 334 L 361 331 L 358 329 Z M 370 329 L 368 333 Q 369 335 373 334 L 374 331 Q 373 328 370 329 Z " /><path fill="rgb(255,156,0)" stroke="rgb(255,156,0)" stroke-width="1" opacity="1" d="M 257.5 350 L 265 351.5 L 256.5 352 L 257.5 350 Z " /></svg>